<?xml version="1.0" encoding="UTF-8"?>
<svg version="1.1" xmlns="http://www.w3.org/2000/svg" width="1057" height="236">
<path d="M0 0 C1.28175613 -0.00960754 2.56351227 -0.01921509 3.8841095 -0.02911377 C5.2856122 -0.03396219 6.68711698 -0.03824091 8.08862305 -0.04199219 C9.52727764 -0.04774654 10.96593222 -0.05350424 12.40458679 -0.05926514 C15.42158362 -0.06976757 18.43855387 -0.07561499 21.45556641 -0.07910156 C25.31241496 -0.08458062 29.16890948 -0.10859887 33.02564716 -0.13707352 C35.9982962 -0.15574336 38.97086076 -0.16090783 41.94356346 -0.16243744 C43.36486939 -0.16545539 44.78617413 -0.17345492 46.20742226 -0.18662262 C48.20070986 -0.20376994 50.19414403 -0.19994555 52.1875 -0.1953125 C53.31984573 -0.19895813 54.45219147 -0.20260376 55.61885071 -0.20635986 C59.89314982 0.28931007 63.27282976 1.74688167 66.43237305 4.69628906 C70.34822285 9.81701573 70.93785204 12.69264519 70.9987793 19.02050781 C71.02685916 20.62728864 71.0555237 22.23405933 71.0847168 23.84082031 C71.12589115 26.37304276 71.16277861 28.90507838 71.18920898 31.4375 C71.21693573 33.88223383 71.26281735 36.32610854 71.3112793 38.77050781 C71.31453217 39.52072205 71.31778503 40.27093628 71.32113647 41.04388428 C71.4316887 45.80750911 71.99154792 49.25762967 74.7878418 53.16113281 C79.75958134 56.05682846 84.27772786 56.58109405 89.91674805 56.53222656 C91.46167224 56.54959943 93.00659407 56.5671839 94.55151367 56.58496094 C96.95642343 56.59503978 99.36118323 56.59862514 101.76611328 56.59692383 C104.10843473 56.60050572 106.44962855 56.62787496 108.79174805 56.65722656 C109.86073082 56.64495277 109.86073082 56.64495277 110.9513092 56.63243103 C116.02908869 56.70762637 118.86357616 57.99686988 122.7878418 61.16113281 C126.87691999 65.80278914 127.91165926 68.17762 127.98071289 74.31982422 C127.99677582 75.61522125 128.01283875 76.91061829 128.02938843 78.24526978 C128.04087888 79.66773827 128.05148691 81.09021412 128.0612793 82.51269531 C128.06660297 83.22902508 128.07192665 83.94535484 128.07741165 84.68339157 C128.10414985 88.47918375 128.12351753 92.27494306 128.13793945 96.07080078 C128.15124836 99.2039123 128.17904169 102.33636781 128.2199707 105.46923828 C128.26946933 109.25824634 128.29408204 113.04666192 128.30116653 116.83597946 C128.30785306 118.27521606 128.32300721 119.7144408 128.34705734 121.15349197 C128.58068006 135.9856513 128.58068006 135.9856513 122.7878418 142.16113281 C118.20703726 145.71125632 113.51038762 146.28149244 107.83659363 146.30157471 C106.86523972 146.30728485 105.8938858 146.312995 104.89309692 146.31887817 C103.31188553 146.32055496 103.31188553 146.32055496 101.69873047 146.32226562 C100.57943649 146.32723053 99.46014252 146.33219543 98.30693054 146.33731079 C94.60655094 146.35190789 90.9062142 146.3587301 87.20581055 146.36425781 C84.63137308 146.37001095 82.05693562 146.37576866 79.48249817 146.38153076 C74.77430248 146.39069199 70.06612389 146.39699535 65.35792083 146.40002751 C58.44331296 146.40450607 51.52890298 146.42205018 44.61435527 146.45102811 C38.61131705 146.47530669 32.60837199 146.48297456 26.60527992 146.48470306 C24.05803665 146.48772682 21.51079416 146.49574595 18.96358299 146.50888824 C15.39728239 146.52597623 11.83146185 146.52406151 8.26513672 146.51757812 C6.69303436 146.5314003 6.69303436 146.5314003 5.08917236 146.54550171 C-1.70947927 146.50685891 -7.80104291 145.95086847 -13.27075195 141.47753906 C-13.72579102 140.89875 -14.18083008 140.31996094 -14.6496582 139.72363281 C-15.12274414 139.14742187 -15.59583008 138.57121094 -16.08325195 137.97753906 C-18.7045319 133.75990869 -18.37480634 129.11314778 -18.4230957 124.29003906 C-18.45115798 122.73078366 -18.4798224 121.171539 -18.5090332 119.61230469 C-18.55029859 117.16561108 -18.58720675 114.71911949 -18.61352539 112.2722168 C-18.64119112 109.90274242 -18.68704925 107.5341655 -18.7355957 105.16503906 C-18.73884857 104.43781143 -18.74210144 103.7105838 -18.74545288 102.96131897 C-18.85208132 98.53669257 -19.51219918 95.69507364 -22.2121582 92.16113281 C-25.04212087 90.27057684 -27.75529375 89.79473517 -31.0871582 89.28613281 C-36.56188738 88.25407783 -40.2988311 86.3383671 -44.0246582 82.09863281 C-46.73234698 77.6808248 -46.79696864 73.18214813 -46.2121582 68.16113281 C-44.80675362 63.81792468 -42.74817439 61.55778479 -39.0871582 58.84863281 C-35.38633926 56.95834383 -31.5841426 56.4163265 -27.52075195 55.72363281 C-24.35482064 54.95223838 -22.45772356 53.47913576 -20.2121582 51.16113281 C-18.66243122 48.06167884 -19.05521925 44.7748481 -19.03637695 41.37207031 C-19.01316098 39.77440114 -18.98904294 38.17674488 -18.96411133 36.57910156 C-18.92913917 34.06453037 -18.89973497 31.5504282 -18.88623047 29.03564453 C-18.87063134 26.60554034 -18.83033153 24.17680655 -18.78637695 21.74707031 C-18.78828537 21.00717865 -18.79019379 20.26728699 -18.79216003 19.50497437 C-18.66514363 14.00801486 -17.2350177 9.77366386 -14.2121582 5.16113281 C-9.6201042 0.79308144 -6.21102654 0.03753137 0 0 Z M15.9753418 36.97363281 C14.09440547 40.43851551 13.36225612 43.3075489 14.26049805 47.21972656 C15.28968688 50.28479713 16.34343277 52.65088541 18.4753418 55.09863281 C23.23823856 57.28699078 27.14209288 57.69916611 32.0378418 56.09863281 C35.36582254 53.75391911 36.96558993 51.80563654 38.7878418 48.16113281 C39.25403074 44.36502282 39.13901423 42.00004473 37.6628418 38.47363281 C34.61031884 34.7088545 31.64259999 32.43161838 26.7878418 31.72363281 C22.37132426 32.36770829 19.14649684 33.80247777 15.9753418 36.97363281 Z M16.0378418 93.97363281 C14.39840935 96.8426396 13.91785162 98.84588222 13.7878418 102.16113281 C15.4099232 107.38783956 17.21588814 110.182835 21.7878418 113.16113281 C24.92103752 113.74891112 24.92103752 113.74891112 28.35058594 113.64697266 C30.31270775 113.65620255 30.31270775 113.65620255 32.31446838 113.6656189 C33.73398546 113.65182311 35.15349552 113.63728915 36.57299805 113.62207031 C38.036004 113.61968415 39.49901306 113.61878093 40.96202087 113.61929321 C44.02272832 113.61617067 47.08296552 113.59964682 50.14355469 113.57275391 C54.06329244 113.53874449 57.98251482 113.53112652 61.90238285 113.53264427 C64.92130944 113.53210004 67.94012377 113.52112492 70.95901299 113.50664139 C72.40427235 113.50028587 73.8495444 113.49633741 75.29481697 113.49485397 C77.31475535 113.49050961 79.33464569 113.47141038 81.35449219 113.45166016 C83.07727135 113.44022476 83.07727135 113.44022476 84.83485413 113.42855835 C87.76046302 113.16361226 89.37919631 112.80283473 91.7878418 111.16113281 C94.82776357 106.7701347 96.71882557 103.63066246 95.7878418 98.16113281 C93.65915655 94.28388469 91.59077641 91.43454328 87.7878418 89.16113281 C84.79651107 88.70721234 84.79651107 88.70721234 81.44628906 88.77294922 C80.16138077 88.76349274 78.87647247 88.75403625 77.55262756 88.74429321 C76.15316459 88.74966364 74.75370442 88.75581677 73.35424805 88.76269531 C71.91462558 88.76067344 70.4750041 88.75776106 69.03538513 88.7539978 C66.0200728 88.7495783 63.00502736 88.75599222 59.98974609 88.77001953 C56.13164505 88.78709617 52.27417083 88.77727808 48.41609287 88.75930214 C45.44344902 88.74844086 42.47095276 88.75192158 39.49830437 88.75968552 C38.07619082 88.76168186 36.65406373 88.75924815 35.23196602 88.75224686 C33.24090977 88.74459641 31.24980635 88.75833188 29.25878906 88.77294922 C28.12723892 88.775336 26.99568878 88.77772278 25.82984924 88.78018188 C21.59919501 89.30998718 18.97164943 90.93504633 16.0378418 93.97363281 Z " fill="white" transform="translate(81.212158203125,42.8388671875)"/>
<path d="M0 0 C1.34682358 -0.00744736 1.34682358 -0.00744736 2.72085571 -0.01504517 C5.69501509 -0.02966519 8.66912112 -0.03646867 11.64331055 -0.04199219 C13.70973207 -0.04774393 15.77615358 -0.05350166 17.84257507 -0.05926514 C22.17776742 -0.06977478 26.51294123 -0.07561764 30.84814453 -0.07910156 C36.39990203 -0.08458508 41.95141412 -0.10861033 47.50309467 -0.13707352 C51.77278863 -0.15570861 56.04242358 -0.16090597 60.31215477 -0.16243744 C62.35865813 -0.1654627 64.40516048 -0.17348696 66.45162392 -0.18662262 C69.31689682 -0.20370055 72.18157168 -0.20179848 75.046875 -0.1953125 C76.31187584 -0.20913467 76.31187584 -0.20913467 77.60243225 -0.22323608 C83.23522408 -0.18334706 87.57918976 0.69826479 91.86206055 4.69628906 C96.25935527 10.44659754 96.82995002 13.99354215 96.2175293 21.16113281 C94.23844298 26.10884859 89.96272966 29.78853263 85.2175293 32.16113281 C83.1865603 32.26109214 81.15231427 32.29672933 79.11889648 32.30297852 C77.83706482 32.31001297 76.55523315 32.31704742 75.23455811 32.32429504 C74.2035561 32.32701888 74.2035561 32.32701888 73.15172577 32.32979774 C70.99910247 32.33696501 68.84670689 32.35263457 66.69415283 32.37113953 C60.57323385 32.4235876 54.45243753 32.47155541 48.33129883 32.48706055 C44.58751603 32.49716568 40.84430331 32.5265561 37.10074615 32.56838036 C35.67671275 32.58066261 34.25259871 32.58581667 32.8285141 32.58358192 C30.83019476 32.5812184 28.83189883 32.60564734 26.83374023 32.63110352 C25.13069733 32.63990288 25.13069733 32.63990288 23.39324951 32.64888 C19.49068562 33.27837479 17.30118475 34.73288336 14.2175293 37.16113281 C11.89840021 40.79107399 11.95114994 44.08997593 12.6081543 48.22753906 C13.63389739 51.48230079 15.56779275 53.12761407 18.2175293 55.16113281 C22.02553032 56.56323502 26.04903817 56.31394862 30.0534668 56.33691406 C31.60816786 56.36011099 33.16285541 56.38422828 34.7175293 56.40917969 C37.15544722 56.44426647 39.59286626 56.47363467 42.03100586 56.48706055 C44.39326497 56.50259544 46.75408993 56.54282966 49.1159668 56.58691406 C49.83803314 56.58500565 50.56009949 56.58309723 51.30404663 56.58113098 C56.39907882 56.70336905 59.27454764 57.98624077 63.2175293 61.16113281 C67.24197479 65.6206535 68.59552571 68.95223869 68.49487305 75.03613281 C67.81618531 80.23621911 65.2063368 83.39430251 61.1550293 86.53613281 C56.49104964 89.11620667 52.64635146 89.3203509 47.4440918 89.37207031 C45.88158132 89.40013887 44.31908146 89.42880333 42.7565918 89.45800781 C40.29891254 89.49924734 37.84143144 89.53614458 35.38354492 89.5625 C33.00748046 89.59017304 30.63230973 89.63604018 28.2565918 89.68457031 C27.52622711 89.68782318 26.79586243 89.69107605 26.04336548 89.69442749 C21.59887597 89.80103406 18.77328879 90.46578337 15.2175293 93.16113281 C13.12641221 95.53106551 12.26183923 97.17036268 12.11987305 100.34472656 C12.38164737 104.23303302 12.73252285 106.53531804 15.1550293 109.66113281 C18.69921849 112.23872495 20.82728398 112.28927472 25.19262695 112.30297852 C26.44798248 112.31001297 27.70333801 112.31704742 28.99673462 112.32429504 C29.6700243 112.32611094 30.34331398 112.32792683 31.03700638 112.32979774 C33.14817448 112.3369704 35.25911111 112.35264548 37.37020874 112.37113953 C43.37348124 112.42355139 49.37663091 112.47151835 55.38012695 112.48706055 C59.05259998 112.49719116 62.72449584 112.52664845 66.39673996 112.56838036 C67.79120881 112.58062988 69.18575945 112.58582273 70.5802803 112.58358192 C78.51571 112.57397432 84.49229211 112.73401512 91.2175293 117.16113281 C95.94583614 122.25315557 96.57484984 125.60138634 96.49487305 132.39941406 C96.10362899 136.29532317 94.8624945 138.30735456 92.2175293 141.16113281 C86.04260209 145.92097254 81.39934024 146.310717 73.79638672 146.30639648 C72.52490532 146.3114344 72.52490532 146.3114344 71.22773743 146.3165741 C68.42614271 146.32607092 65.62460786 146.32802666 62.82299805 146.32910156 C60.87250239 146.33231534 58.92200699 146.3356795 56.97151184 146.33918762 C52.88188112 146.34517594 48.79227152 146.34702786 44.70263672 146.34643555 C39.47054375 146.34633401 34.23858676 146.35997844 29.00652599 146.37720776 C24.97698855 146.38834498 20.94748377 146.39035421 16.91793251 146.38982582 C14.9894902 146.39100363 13.06104698 146.39541425 11.13261986 146.40315819 C8.43060254 146.41299153 5.72887782 146.41006669 3.02685547 146.40405273 C2.23544159 146.40967224 1.44402771 146.41529175 0.62863159 146.42108154 C-6.46504898 146.38110457 -12.58409538 145.35950814 -17.7824707 140.16113281 C-20.70953602 135.40819106 -21.21098899 131.33612434 -21.1887207 125.87597656 C-21.19955688 125.097267 -21.21039307 124.31855743 -21.22155762 123.51625061 C-21.26716999 120.20742511 -21.27888967 116.89868298 -21.29370117 113.58959961 C-21.30942897 111.16394478 -21.34242755 108.73893622 -21.3762207 106.31347656 C-21.37319946 105.57064926 -21.37017822 104.82782196 -21.36706543 104.06248474 C-21.4478816 98.45948484 -22.67000184 95.39975113 -26.47094727 91.37182617 C-29.8283716 89.6133273 -33.06771181 89.75932595 -36.7668457 89.79003906 C-38.35799359 89.77264772 -39.94913938 89.75506344 -41.5402832 89.73730469 C-44.03283735 89.72726591 -46.52524881 89.72362785 -49.01782227 89.7253418 C-51.43458697 89.72174399 -53.85027479 89.69429321 -56.2668457 89.66503906 C-57.00046326 89.67322159 -57.73408081 89.68140411 -58.4899292 89.68983459 C-63.93846544 89.6125204 -68.25819713 88.25925534 -72.7824707 85.16113281 C-76.94519139 79.93104785 -78.33842218 75.83255054 -77.7824707 69.16113281 C-75.65674477 63.62731366 -72.118108 59.82895146 -66.7824707 57.16113281 C-64.15575945 57.04058326 -61.55100042 56.97549786 -58.9230957 56.95019531 C-57.31631488 56.92211545 -55.70954419 56.89345091 -54.1027832 56.86425781 C-51.57056076 56.82308346 -49.03852514 56.786196 -46.50610352 56.75976562 C-44.06136969 56.73203888 -41.61749498 56.68615726 -39.1730957 56.63769531 C-38.42288147 56.63444244 -37.67266724 56.63118958 -36.89971924 56.62783813 C-32.13552677 56.51727274 -28.76002196 55.82377301 -24.7824707 53.16113281 C-21.35652424 49.12696327 -21.35557056 45.08600597 -21.3762207 40.00878906 C-21.36538452 39.23103622 -21.35454834 38.45328339 -21.34338379 37.65196228 C-21.30923516 35.17576734 -21.2935551 32.70003182 -21.2824707 30.22363281 C-21.2678496 26.96407999 -21.23407506 23.70554336 -21.1887207 20.44628906 C-21.19174194 19.70548599 -21.19476318 18.96468292 -21.19787598 18.20143127 C-21.11968565 12.75610594 -19.99900134 8.59123541 -16.2824707 4.51660156 C-10.80071169 0.24825275 -6.74341825 0.00887465 0 0 Z " fill="white" transform="translate(708.782470703125,42.8388671875)"/>
<path d="M0 0 C1.52863426 -0.0129007 1.52863426 -0.0129007 3.08815002 -0.02606201 C4.20558594 -0.03032196 5.32302185 -0.03458191 6.47431946 -0.03897095 C7.6518428 -0.04714844 8.82936615 -0.05532593 10.04257202 -0.06375122 C13.94859972 -0.08861137 17.85461981 -0.10527772 21.76069641 -0.11953735 C23.10739969 -0.12489882 24.4541029 -0.13027633 25.80080605 -0.13566971 C31.40514415 -0.15729553 37.00947943 -0.17602996 42.61384869 -0.1872921 C50.63389262 -0.20351673 58.65345098 -0.23666091 66.67331189 -0.29369295 C72.31846128 -0.33246225 77.9634812 -0.35193312 83.60876018 -0.35721266 C86.97720457 -0.36085729 90.3451307 -0.37278169 93.7134304 -0.4053154 C97.47654952 -0.43693285 101.23844614 -0.43700772 105.00166321 -0.42959595 C106.10897797 -0.44600128 107.21629272 -0.46240662 108.35716248 -0.47930908 C115.18589845 -0.42432908 119.80537584 0.64763976 125.06147766 5.15390015 C128.24160314 8.94953379 129.21108146 13.2450254 129.06147766 18.15390015 C127.28402372 23.97999919 124.45195819 27.78511107 119.45732117 31.2746582 C115.76364903 32.63018558 112.04983338 32.4282105 108.16548157 32.40927124 C107.26745316 32.41289169 106.36942474 32.41651215 105.44418335 32.42024231 C103.49570862 32.42713142 101.54721462 32.42964266 99.59872818 32.42829514 C96.51337382 32.42732993 93.42836787 32.44027161 90.34306335 32.45727539 C81.57149453 32.50354963 72.79996121 32.52815446 64.02827454 32.53475952 C58.66132531 32.53977534 53.29473972 32.56402906 47.92791367 32.60008621 C45.88423725 32.6098826 43.8405108 32.61221704 41.79681778 32.60691452 C38.93623775 32.59984078 36.07674055 32.61713276 33.21626282 32.63973999 C32.37449997 32.63156754 31.53273712 32.62339508 30.66546631 32.61497498 C25.35723976 32.68951141 22.21663729 33.54394658 18.06147766 37.15390015 C15.71195348 40.38293482 15.80336238 43.374396 15.78681946 47.29598999 C15.77728745 48.53762909 15.76775543 49.77926819 15.75793457 51.05853271 C15.75819604 52.41063465 15.75913328 53.76273659 15.76069641 55.11483765 C15.75680709 56.50722379 15.75247193 57.89960875 15.74771118 59.29199219 C15.74025586 62.20889126 15.74053483 65.1256693 15.74580383 68.04257202 C15.75159209 71.77051491 15.73468029 75.49795992 15.71145916 79.22582054 C15.69668597 82.10155101 15.69585505 84.97716265 15.69896889 87.85292435 C15.69845729 89.22677215 15.69324995 90.60062689 15.68315697 91.97443771 C15.67074422 93.90059327 15.67954922 95.82684968 15.68916321 97.75302124 C15.68853378 98.84682098 15.68790436 99.94062073 15.68725586 101.06756592 C16.19900416 105.2881279 17.35099773 108.73595892 20.69970703 111.51194763 C24.38680431 112.51413698 28.05840194 112.43673385 31.84980774 112.42514038 C32.73647629 112.43036713 33.62314484 112.43559387 34.53668213 112.440979 C36.46059208 112.45121378 38.38452968 112.4569985 40.30846596 112.4588604 C43.356288 112.46252429 46.40378472 112.47925244 49.45153809 112.49961853 C58.1164596 112.55502364 66.78142931 112.5856918 75.44648743 112.61019897 C80.74855698 112.6260983 86.05039631 112.65634422 91.35234642 112.69496346 C93.37007383 112.70659442 95.38784247 112.71254364 97.40560341 112.71264458 C100.23230045 112.71283723 103.05836541 112.73114805 105.88496399 112.75326538 C106.71378082 112.7486882 107.54259766 112.74411102 108.39653015 112.73939514 C114.96026044 112.82079653 119.49649582 114.27291346 124.87397766 118.21640015 C127.92464927 122.3130163 128.87554741 126.07180659 129.06147766 131.15390015 C128.37003666 135.67969581 126.64139188 138.95872052 123.24897766 142.02890015 C116.60716116 146.45677782 110.57913443 146.44245735 102.8429718 146.41268921 C101.72192551 146.41619385 100.60087921 146.41969849 99.44586182 146.42330933 C95.74605589 146.43210009 92.04644173 146.42628632 88.34663391 146.41952515 C85.77122969 146.42087265 83.19582572 146.4228139 80.62042236 146.42532349 C75.22452639 146.42827124 69.82870221 146.42418007 64.43281555 146.41464233 C58.20709682 146.4037644 51.98150917 146.40728087 45.75579363 146.41829515 C39.75221079 146.42848874 33.74869171 146.427379 27.74510002 146.42153168 C25.19704101 146.42019883 22.64897864 146.42183011 20.10092354 146.42649078 C16.53698539 146.43157865 12.9732976 146.42381342 9.40937805 146.41268921 C8.35928558 146.41673767 7.30919312 146.42078613 6.22727966 146.42495728 C-1.57532848 146.37991709 -8.13331417 145.95910831 -13.93852234 140.15390015 C-16.27181557 136.5243329 -17.1344964 133.28391809 -17.81352234 129.09140015 C-18.44067995 125.85351666 -18.98758817 124.07437966 -20.75102234 121.21640015 C-24.91514891 118.5219653 -28.92703615 117.84743461 -33.78227234 117.0249939 C-38.2780314 115.78420891 -40.90415748 113.52073943 -43.68852234 109.84140015 C-45.82639911 105.24496508 -46.17263573 101.51175784 -45.31352234 96.52890015 C-43.32402886 91.64559796 -40.63769402 89.19657368 -36.18852234 86.46640015 C-33.45034873 85.36059927 -31.2436719 84.79726466 -28.37602234 84.27890015 C-23.95318307 83.39134893 -21.76064256 81.76974168 -18.93852234 78.15390015 C-17.8485807 74.88407521 -17.807444 72.47527875 -17.79667664 69.03353882 C-17.78964218 67.77180344 -17.78260773 66.51006805 -17.77536011 65.21009827 C-17.77354422 64.53606146 -17.77172832 63.86202465 -17.76985741 63.16756248 C-17.76267587 61.05266361 -17.74699647 58.9379946 -17.72851562 56.82316589 C-17.67612882 50.81064018 -17.62809096 44.79824094 -17.6125946 38.78549194 C-17.60248905 35.1053903 -17.57310093 31.42586856 -17.5312748 27.74599648 C-17.51899657 26.34708361 -17.51383774 24.94808873 -17.51607323 23.54912376 C-17.51843708 21.58683502 -17.49400592 19.62457014 -17.46855164 17.66244507 C-17.46268539 16.54786423 -17.45681915 15.43328339 -17.45077515 14.28492737 C-16.63267575 9.28448339 -14.07307573 6.1777654 -10.37602234 2.84140015 C-6.84684767 0.39812538 -4.18430857 0.02630102 0 0 Z " fill="white" transform="translate(477.9385223388672,42.846099853515625)"/>
<path d="M0 0 C0.78631302 -0.00852997 1.57262604 -0.01705994 2.38276672 -0.02584839 C3.23635773 -0.02494202 4.08994873 -0.02403564 4.96940613 -0.02310181 C6.32866966 -0.03317764 6.32866966 -0.03317764 7.71539307 -0.04345703 C10.71182232 -0.06245825 13.70802779 -0.06636246 16.70451355 -0.06851196 C18.78953137 -0.07493894 20.87454829 -0.08166722 22.95956421 -0.08868408 C27.33168122 -0.10066254 31.70371918 -0.10436437 36.07585144 -0.10317993 C41.67130292 -0.10297683 47.26624598 -0.13026725 52.86157703 -0.16472435 C57.16907059 -0.18699139 61.47644183 -0.19101751 65.78398705 -0.18996048 C67.84641457 -0.19231718 69.90884543 -0.20114455 71.9712162 -0.21662521 C74.86029484 -0.23627875 77.74827761 -0.23044922 80.63737488 -0.21841431 C81.48489319 -0.22965332 82.3324115 -0.24089233 83.20561218 -0.25247192 C88.94454946 -0.19189633 92.28535754 0.94334324 96.9974823 4.26742554 C101.08012092 9.5318806 102.65440732 13.5886878 101.9974823 20.26742554 C99.90919814 25.28679912 97.21383156 28.73433457 92.38595581 31.41017151 C87.63038996 33.11700559 82.58854393 32.81436418 77.58822441 32.7838459 C75.48946032 32.7711173 73.39199251 32.78259201 71.29327393 32.79988098 C67.59496793 32.82648055 63.89698444 32.83218044 60.19859314 32.83078003 C54.27681911 32.82854461 48.3554433 32.84280646 42.43382454 32.88636589 C40.37417453 32.89615662 38.31516 32.8875142 36.25552368 32.87767029 C34.99724258 32.88455368 33.73896149 32.89143707 32.44255066 32.89852905 C31.34003464 32.89756729 30.23751862 32.89660553 29.10159302 32.89561462 C25.50575011 33.3263253 23.09651795 34.42264012 19.9974823 36.26742554 C17.2216935 40.19043341 17.32861385 44.64314982 17.9974823 49.26742554 C20.36147699 53.38252741 22.54134075 54.87827018 26.9974823 56.26742554 C29.6631358 56.45293941 32.23187958 56.54456325 34.8959198 56.54086304 C36.44280202 56.56115334 37.98967697 56.58200415 39.5365448 56.60336304 C41.95457626 56.62592479 44.37231925 56.64242514 46.79045105 56.64828491 C49.13862659 56.65786148 51.48553205 56.69169442 53.8334198 56.72836304 C54.54718781 56.72331757 55.26095581 56.71827209 55.99635315 56.71307373 C61.50871 56.81995299 64.5434741 58.25309676 68.9974823 61.26742554 C72.48563106 64.93445372 73.29028131 67.84138904 73.4974823 72.76742554 C73.30396923 77.68532656 72.36754141 80.53303571 68.9974823 84.26742554 C63.79558719 88.96181869 59.83138458 89.40565872 53.04045105 89.44320679 C51.43692235 89.46640856 49.83340668 89.49052604 48.22990417 89.51547241 C45.70857555 89.55054196 43.18772602 89.57991091 40.66618347 89.59335327 C38.22785261 89.60888709 35.7909117 89.64912923 33.35295105 89.69320679 C32.23233528 89.69034416 32.23233528 89.69034416 31.08908081 89.68742371 C25.94771793 89.8067378 22.91814245 90.94663958 18.9974823 94.26742554 C17.81891797 97.80311853 17.8247672 101.03577481 17.7865448 104.71664429 C17.75845837 106.21991005 17.7297938 107.7231651 17.7006073 109.22640991 C17.6595152 111.58504733 17.62261076 113.94348867 17.59611511 116.30233765 C17.56826009 118.58668933 17.52237695 120.87014567 17.4740448 123.15414429 C17.47079193 123.84715134 17.46753906 124.54015839 17.46418762 125.25416565 C17.30197536 131.81863463 15.84835723 137.28741979 11.3099823 142.14242554 C6.78502205 145.04523023 3.09516834 146.72327231 -2.3384552 145.92367554 C-7.9902645 144.34642643 -10.82863304 142.17252001 -14.0025177 137.26742554 C-15.9540381 132.54622597 -16.26979261 128.24312603 -16.24079895 123.20101929 C-16.25620866 121.64827607 -16.27251155 120.09554151 -16.28962708 118.54281616 C-16.30610639 116.11789713 -16.31498484 113.69361697 -16.30793762 111.26864624 C-16.30531521 108.91204851 -16.33343338 106.55736121 -16.36579895 104.20101929 C-16.35559219 103.48006577 -16.34538544 102.75911224 -16.33486938 102.01631165 C-16.41131262 98.0689627 -16.87468005 96.42271513 -19.41731262 93.33407593 C-23.53194246 90.04478123 -26.51176885 90.1072301 -31.60798645 90.05648804 C-33.16463727 90.02840186 -34.72127775 89.9997373 -36.27790833 89.97055054 C-38.72883113 89.92942849 -41.17956443 89.89253847 -43.63069153 89.86605835 C-45.99852917 89.83826627 -48.36549168 89.79237927 -50.73298645 89.74398804 C-51.45616562 89.74073517 -52.17934479 89.7374823 -52.92443848 89.73413086 C-58.53408278 89.60017334 -63.44219672 88.52349313 -67.7447052 84.73226929 C-72.00335717 78.99043163 -72.74842281 75.37483566 -72.0025177 68.26742554 C-70.45396164 63.31391186 -67.50714052 60.54397533 -62.9783783 58.0814209 C-59.67955162 56.72240315 -56.37967871 56.72314885 -52.87361145 56.76351929 C-52.12088455 56.75409805 -51.36815765 56.74467682 -50.59262085 56.73497009 C-48.20813742 56.70651217 -45.82465646 56.70323482 -43.4400177 56.70492554 C-41.05195593 56.70130543 -38.66461517 56.69165823 -36.27670288 56.66416931 C-34.79757727 56.64751519 -33.31821443 56.64439883 -31.83905029 56.65718079 C-26.23455285 56.60025422 -22.3029151 55.38168994 -18.15290833 51.56747437 C-16.49797712 48.2586656 -16.581147 45.08500291 -16.5962677 41.46664429 C-16.58543152 40.71204422 -16.57459534 39.95744415 -16.56343079 39.17997742 C-16.52922643 36.77153972 -16.51359637 34.36357388 -16.5025177 31.95492554 C-16.48787174 28.79171644 -16.45401541 25.62954761 -16.4087677 22.46664429 C-16.41178894 21.74973923 -16.41481018 21.03283417 -16.41792297 20.29420471 C-16.32316896 13.85343268 -14.8099192 9.35288881 -10.5650177 4.45492554 C-7.12839489 1.52122314 -4.54666725 0.02239683 0 0 Z " fill="white" transform="translate(306.0025177001953,42.732574462890625)"/>
<path d="M0 0 C3.88446678 2.58964452 6.69907021 5.64814041 8.8125 9.875 C8.91666532 11.63548148 8.95846963 13.39980874 8.97021484 15.16333008 C8.98047699 16.26820267 8.99073914 17.37307526 9.00131226 18.51142883 C9.00861359 19.71035263 9.01591492 20.90927643 9.0234375 22.14453125 C9.05150634 24.66732419 9.08017081 27.19011057 9.109375 29.71289062 C9.15065541 33.70259324 9.18753006 37.69205355 9.21386719 41.68188477 C9.24144743 45.52386017 9.28732256 49.36527219 9.3359375 53.20703125 C9.33919037 54.39988235 9.34244324 55.59273346 9.34579468 56.82173157 C9.36236115 57.93606064 9.37892761 59.05038971 9.39599609 60.19848633 C9.40812637 61.6650341 9.40812637 61.6650341 9.42050171 63.16120911 C9.88108749 66.34982884 11.02094224 68.225309 12.8125 70.875 C13.49346422 72.20108822 14.16580586 73.53186601 14.8125 74.875 C15.4725 74.875 16.1325 74.875 16.8125 74.875 C16.8125 75.535 16.8125 76.195 16.8125 76.875 C17.8025 77.205 18.7925 77.535 19.8125 77.875 C19.8125 78.535 19.8125 79.195 19.8125 79.875 C20.4725 79.875 21.1325 79.875 21.8125 79.875 C21.8125 80.535 21.8125 81.195 21.8125 81.875 C22.4725 81.875 23.1325 81.875 23.8125 81.875 C23.8125 82.535 23.8125 83.195 23.8125 83.875 C24.4725 83.875 25.1325 83.875 25.8125 83.875 C25.8125 84.535 25.8125 85.195 25.8125 85.875 C26.36663574 86.10243896 26.92077148 86.32987793 27.49169922 86.56420898 C30.48649705 88.25567433 32.53616236 90.39282362 34.9453125 92.84765625 C35.42322235 93.33076767 35.9011322 93.81387909 36.39352417 94.31163025 C37.91303614 95.84889041 39.4256639 97.39269326 40.9375 98.9375 C42.45734559 100.48497477 43.97863419 102.03095926 45.50289917 103.57408142 C46.88168742 104.97070801 48.25566065 106.37208323 49.62939453 107.77368164 C53.78358101 111.77223711 57.85911377 111.23224522 63.375 111.375 C64.67920898 111.45621094 64.67920898 111.45621094 66.00976562 111.5390625 C73.71150543 111.69987437 77.37119159 109.09145264 82.8125 103.875 C83.37647491 103.33494324 83.94044983 102.79488647 84.52151489 102.23846436 C88.62914246 98.2832177 92.66704338 94.26208251 96.68115234 90.2121582 C98.82978924 88.04506223 100.98652489 85.88627781 103.14453125 83.72851562 C104.51349702 82.35464098 105.88200372 80.98030874 107.25 79.60546875 C107.89469238 78.95966354 108.53938477 78.31385834 109.20361328 77.64848328 C109.79513184 77.05058487 110.38665039 76.45268646 110.99609375 75.83666992 C111.51743896 75.31151291 112.03878418 74.7863559 112.57592773 74.24528503 C113.92460403 72.87347189 113.92460403 72.87347189 114.8125 70.875 C115.4725 70.875 116.1325 70.875 116.8125 70.875 C117.62305843 67.31136405 117.94519028 64.00542557 117.97021484 60.35375977 C117.98047699 59.27236221 117.99073914 58.19096466 118.00131226 57.07679749 C118.00861359 55.91836838 118.01591492 54.75993927 118.0234375 53.56640625 C118.05149817 51.10350889 118.08016257 48.64061834 118.109375 46.17773438 C118.15067333 42.30232884 118.18757089 38.42705174 118.21386719 34.55151367 C118.24147091 30.80621236 118.28733295 27.06148603 118.3359375 23.31640625 C118.33919037 22.16000137 118.34244324 21.0035965 118.34579468 19.81214905 C118.44526942 13.29987912 118.72006911 8.26539949 123.3125 3.23046875 C128.3959439 -0.72773366 132.41417509 -1.78186225 138.8125 -1.125 C144.48757225 0.87796668 148.11925089 4.48850179 150.8125 9.875 C150.92417968 11.79257887 150.97177804 13.71401917 150.98950195 15.63476562 C151.00875481 17.44805359 151.00875481 17.44805359 151.02839661 19.29797363 C151.03578354 20.61245483 151.04317047 21.92693604 151.05078125 23.28125 C151.05485678 23.95095322 151.0589323 24.62065643 151.06313133 25.31065369 C151.08400697 28.86237276 151.09829639 32.41405314 151.10766602 35.96582031 C151.11867218 39.61280007 151.15299887 43.25915979 151.19283772 46.90592194 C151.21916389 49.72689846 151.22737237 52.54773167 151.23094749 55.36882019 C151.23811281 57.35945371 151.26449359 59.34998867 151.29133606 61.3404541 C151.25876509 75.0796863 147.3690503 82.21576034 137.8125 91.875 C136.96823456 92.75009216 136.12396912 93.62518433 135.25411987 94.52679443 C132.49983984 97.36792356 129.72179106 100.18444127 126.93359375 102.9921875 C126.43330217 103.4965546 125.9330106 104.00092171 125.41755867 104.52057266 C122.77874231 107.18001694 120.13682958 109.8363406 117.49243164 112.49023438 C114.78202345 115.21178011 112.08352242 117.94483173 109.38735867 120.68047905 C107.28953769 122.80452405 105.18280294 124.91955905 103.07362556 127.03232193 C102.07480124 128.03598122 101.07932331 129.04298352 100.08746147 130.05352402 C90.86665248 139.43739213 82.47645677 144.66402573 69.12890625 145.140625 C67.54428709 145.14949322 65.95952965 145.14403436 64.375 145.125 C63.54170166 145.11678223 62.70840332 145.10856445 61.84985352 145.10009766 C44.3685513 144.78234898 34.63669809 137.33390118 22.63671875 125.265625 C21.49764142 124.13179633 20.35804902 122.9984849 19.2179718 121.86566162 C16.84394952 119.50198418 14.47745944 117.13107602 12.1159668 114.75488281 C9.10762088 111.72933471 6.07936947 108.7246432 3.04490948 105.72531509 C0.69122689 103.39371717 -1.65051219 101.0503996 -3.98903465 98.70360565 C-5.10026486 97.59156244 -6.21527878 96.48328541 -7.33431435 95.37909698 C-16.27747725 86.53656004 -23.24019815 78.10455446 -23.36450195 65.02416992 C-23.37733719 63.84582077 -23.39017242 62.66747162 -23.40339661 61.45341492 C-23.41078354 60.18359268 -23.41817047 58.91377045 -23.42578125 57.60546875 C-23.433853 56.29596756 -23.44192474 54.98646637 -23.45024109 53.63728333 C-23.46524031 50.86585624 -23.47509166 48.09445452 -23.48266602 45.32299805 C-23.49372313 41.78563333 -23.52812593 38.24889891 -23.56783772 34.71175671 C-23.60037969 31.32218677 -23.6047884 27.93268277 -23.61328125 24.54296875 C-23.63078934 23.27921921 -23.64829742 22.01546967 -23.66633606 20.71342468 C-23.64949629 13.87633418 -23.39086491 9.37992178 -19.1875 3.875 C-13.45392918 -1.43904125 -7.34231028 -2.59140363 0 0 Z " fill="white" transform="translate(853.1875,44.125)"/>
<path d="M0 0 C3.85598423 3.2425322 6.38123307 5.78757539 7.1328125 10.93359375 C7.31800392 15.48312952 7.08813423 18.59721604 5.125 22.75 C1.5534116 26.6035559 -1.53334525 28.83565146 -6.625 30.25 C-11.95717216 30.341934 -15.86099053 29.22577598 -20.0546875 25.8671875 C-23.69204685 22.12540635 -25.18867218 18.72988341 -25.41015625 13.51171875 C-25.01155712 8.03827215 -22.77174389 4.52210576 -18.8125 0.9375 C-13.03255558 -3.89851614 -6.4663206 -3.35751262 0 0 Z " fill="white" transform="translate(372.25,158.6875)"/>
<path d="M0 0 C4.86634517 2.57089934 9.22361005 5.67083015 11 11 C11.39485547 15.4800909 11.55885594 19.60286014 9.875 23.8125 C6.78650394 27.4157454 2.99158049 31.62833725 -1.91796875 32.23828125 C-7.88421668 32.43339091 -11.18216898 31.58975645 -16 28 C-19.47934871 24.06284224 -20.7991262 20.46114681 -21.1640625 15.30859375 C-20.78410145 9.96199891 -18.23811337 6.1777176 -14.4375 2.5625 C-9.8247945 -0.3943625 -5.33425503 -0.66678188 0 0 Z " fill="white" transform="translate(652,43)"/>
<path d="M0 0 C1.02053467 -0.00852997 2.04106934 -0.01705994 3.0925293 -0.02584839 C4.21153625 -0.02494202 5.33054321 -0.02403564 6.48345947 -0.02310181 C7.66258911 -0.02981903 8.84171875 -0.03653625 10.05657959 -0.04345703 C13.29234598 -0.05921742 16.52795845 -0.06581321 19.76375866 -0.0670886 C21.78685544 -0.06851037 23.80992534 -0.07278053 25.83301544 -0.07808304 C32.8955506 -0.096592 39.95801024 -0.10475298 47.02056885 -0.10317993 C53.59566049 -0.10197977 60.17042321 -0.12305481 66.74543166 -0.15466726 C72.39567661 -0.18086164 78.04581438 -0.19154584 83.69611955 -0.19026911 C87.06834103 -0.1897602 90.44027052 -0.19540298 93.81243134 -0.21662521 C97.57805091 -0.23622893 101.34282618 -0.23046766 105.10845947 -0.21841431 C106.77482452 -0.23527283 106.77482452 -0.23527283 108.47485352 -0.25247192 C114.89161103 -0.20030164 118.79912889 0.5077777 124.05474854 4.26742554 C123.06474854 4.59742554 122.07474854 4.92742554 121.05474854 5.26742554 C120.06474854 4.60742554 119.07474854 3.94742554 118.05474854 3.26742554 C115.7428207 2.9747295 115.7428207 2.9747295 113.13400269 3.03364563 C112.11899185 3.03234146 111.10398102 3.03103729 110.05821228 3.0296936 C108.94541397 3.0384552 107.83261566 3.0472168 106.68609619 3.0562439 C105.51350754 3.05755814 104.34091888 3.05887238 103.13279724 3.06022644 C99.91572393 3.06561062 96.69882857 3.07981248 93.48180437 3.09756923 C90.11423726 3.1137966 86.74665793 3.11790269 83.37905884 3.12303162 C76.99603825 3.13441574 70.61308808 3.15514173 64.23010671 3.17992932 C52.80548938 3.22422411 41.38084803 3.25746817 29.95616758 3.28017336 C26.60422489 3.2871955 23.25232588 3.2967953 19.9004097 3.31202507 C16.16100336 3.32867249 12.42161964 3.33946242 8.68218994 3.34921265 C7.01906517 3.3593187 7.01906517 3.3593187 5.32234192 3.36962891 C3.7913662 3.37190239 3.7913662 3.37190239 2.22946167 3.3742218 C1.34567148 3.37774123 0.46188129 3.38126066 -0.44869041 3.38488674 C-3.03565948 3.26317191 -5.42260421 2.83918734 -7.94525146 2.26742554 C-4.68697686 0.09524246 -3.76887675 0.01422834 0 0 Z " fill="white" transform="translate(477.94525146484375,42.732574462890625)"/>
<path d="M0 0 C1.62386649 0.10108309 3.25149842 0.14621759 4.87846375 0.15821838 C5.88387207 0.1680072 6.8892804 0.17779602 7.92515564 0.18788147 C9.0271077 0.19363693 10.12905975 0.1993924 11.2644043 0.20532227 C13.00607376 0.22017166 13.00607376 0.22017166 14.78292847 0.23532104 C18.63000432 0.26696901 22.47709252 0.29170661 26.32421875 0.31640625 C28.98794483 0.33697293 31.65166515 0.35792137 34.31538391 0.37937927 C40.61575967 0.4292929 46.91616072 0.47423666 53.21658593 0.51740164 C60.38946319 0.56678538 67.56229475 0.62169929 74.73512781 0.67708123 C89.49004187 0.79088085 104.24500145 0.8977243 119 1 C119 1.33 119 1.66 119 2 C115.62030878 2.75882401 112.49658635 3.12683206 109.03529358 3.13371277 C107.57392723 3.14011024 107.57392723 3.14011024 106.08303833 3.14663696 C105.02575531 3.14618378 103.96847229 3.14573059 102.87915039 3.14526367 C101.75664383 3.14862228 100.63413727 3.1519809 99.47761536 3.15544128 C95.76761773 3.164939 92.05766528 3.16689371 88.34765625 3.16796875 C85.76842734 3.1711818 83.18919862 3.17454591 80.60997009 3.17805481 C75.20392354 3.18404288 69.79789491 3.18593784 64.3918457 3.18530273 C58.1507996 3.18470187 51.90983991 3.19525816 45.66881567 3.2110464 C39.65509615 3.2257153 33.64142344 3.22929035 27.62768364 3.22869301 C25.07321253 3.2298735 22.51874078 3.23429915 19.96428108 3.24202538 C16.39286232 3.25181726 12.82166646 3.24895038 9.25024414 3.24291992 C7.66735596 3.25134918 7.66735596 3.25134918 6.05249023 3.25994873 C0.96830879 3.23812259 -3.24307643 3.03961152 -8 1 C-8 0.67 -8 0.34 -8 0 C-4.71303767 -0.79953138 -3.28976808 -1.09658936 0 0 Z " fill="white" transform="translate(80,186)"/>
<path d="M0 0 C0.90646774 -0.00686325 1.81293549 -0.0137265 2.74687195 -0.02079773 C5.73253198 -0.03904494 8.7176655 -0.03523115 11.70336914 -0.02954102 C13.78552928 -0.0341038 15.86768791 -0.03940967 17.94984436 -0.04542542 C22.31004969 -0.05435244 26.67007182 -0.05193796 31.03027344 -0.04199219 C36.61000246 -0.0305031 42.18909858 -0.05071546 47.76874447 -0.07990932 C52.06767271 -0.09828022 56.36644953 -0.09797706 60.66540718 -0.0922718 C62.72224376 -0.0921187 64.77909067 -0.09815405 66.83588982 -0.11056328 C69.7152126 -0.12548806 72.59336925 -0.11478508 75.47265625 -0.09765625 C76.31703247 -0.10732422 77.16140869 -0.11699219 78.03137207 -0.12695312 C83.74512392 -0.05599583 87.05681794 1.20222704 91.80102539 4.40405273 C90.05102539 5.02905273 90.05102539 5.02905273 87.80102539 5.40405273 C86.86566027 4.92871959 86.86566027 4.92871959 85.91139889 4.44378376 C83.6410693 3.32524616 82.29132277 3.15088927 79.78504944 3.14335632 C78.60124443 3.13272911 78.60124443 3.13272911 77.39352417 3.12188721 C76.53679108 3.12436462 75.68005798 3.12684204 74.79736328 3.12939453 C73.43328087 3.12172813 73.43328087 3.12172813 72.04164124 3.11390686 C69.03558776 3.10000695 66.02976344 3.10096791 63.02368164 3.10327148 C60.93387263 3.09938484 58.8440644 3.09505024 56.7542572 3.09028625 C52.37374308 3.08282323 47.99330955 3.08311599 43.61279297 3.08837891 C37.99928981 3.0941743 32.3861165 3.07724111 26.77266788 3.05403423 C22.45668102 3.03930266 18.14077371 3.03842441 13.82476616 3.04154396 C11.75511458 3.04103048 9.68545859 3.03578778 7.61583138 3.02573204 C4.72169683 3.01339597 1.82820627 3.0201424 -1.06591797 3.03173828 C-1.92062683 3.02409454 -2.77533569 3.01645081 -3.65594482 3.00857544 C-8.32899276 3.04996087 -11.3992129 3.37762737 -15.19897461 6.40405273 C-16.61353355 8.39783244 -16.61353355 8.39783244 -17.51147461 10.59155273 C-17.83760742 11.30698242 -18.16374023 12.02241211 -18.49975586 12.75952148 C-18.73049805 13.3022168 -18.96124023 13.84491211 -19.19897461 14.40405273 C-20.02403079 12.07237223 -20.41460021 10.90288807 -19.41381836 8.58764648 C-18.7815332 7.72333008 -18.7815332 7.72333008 -18.13647461 6.84155273 C-17.73299805 6.26276367 -17.32952148 5.68397461 -16.91381836 5.08764648 C-11.91992992 0.18476285 -6.57840189 -0.03498775 0 0 Z " fill="white" transform="translate(311.198974609375,42.595947265625)"/>
<path d="M0 0 C6.14520484 5.98763548 6.14520484 5.98763548 6.25 11.8125 C6.18854598 16.08969961 5.86511163 18.65736976 3 22 C-1.79541256 26.48850616 -4.61064421 28.12623428 -11.19384766 28.11352539 C-12.49504547 28.11344986 -13.79624329 28.11337433 -15.13687134 28.11329651 C-16.56260211 28.10818947 -17.9883325 28.10297347 -19.4140625 28.09765625 C-20.86851961 28.09579147 -22.32297734 28.09436785 -23.7774353 28.09336853 C-27.60792776 28.08954805 -31.43838237 28.07972176 -35.26885986 28.06866455 C-39.17663053 28.05844035 -43.08440731 28.05386874 -46.9921875 28.04882812 C-54.6614756 28.03809908 -62.3307325 28.02102828 -70 28 C-69.67 27.34 -69.34 26.68 -69 26 C-68.24911102 25.98969254 -67.49822205 25.97938507 -66.72457886 25.96876526 C-59.63319284 25.87061169 -52.54188678 25.76807261 -45.45063591 25.66066074 C-41.80533611 25.60559831 -38.16002807 25.55220599 -34.51464844 25.50268555 C-30.99382036 25.45479469 -27.47308375 25.40244482 -23.95236588 25.34705925 C-21.96168609 25.31689118 -19.9709388 25.29128943 -17.98019409 25.26576233 C-16.75938141 25.24581711 -15.53856873 25.22587189 -14.28076172 25.20532227 C-13.21042694 25.18977798 -12.14009216 25.1742337 -11.037323 25.15821838 C-7.93632281 24.99668297 -5.02815495 24.69429613 -2 24 C-1.67 23.34 -1.34 22.68 -1 22 C-0.01 21.2884375 -0.01 21.2884375 1 20.5625 C4.1501014 16.52643258 3.8279293 11.99005038 4 7 C3.01 6.67 2.02 6.34 1 6 C0.505 3.03 0.505 3.03 0 0 Z " fill="white" transform="translate(799,47)"/>
<path d="M0 0 C-1.35155282 4.42326378 -3.19890438 6.40412982 -7 9 C-10.2609541 10.0869847 -12.6878326 10.1442278 -16.12036133 10.17358398 C-17.38209671 10.18707382 -18.64383209 10.20056366 -19.94380188 10.21446228 C-20.61783869 10.21952223 -21.2918755 10.22458218 -21.98633766 10.22979546 C-24.10122399 10.24624301 -26.21593529 10.26948363 -28.33073425 10.29469299 C-34.343203 10.36535489 -40.35574393 10.42547567 -46.3684082 10.47680664 C-50.04836148 10.50869942 -53.72811386 10.55000224 -57.40790367 10.59700203 C-58.80682429 10.61296242 -60.20579114 10.62531136 -61.60477638 10.63390923 C-63.56707726 10.64614064 -65.52928422 10.67133343 -67.49145508 10.69702148 C-68.60603592 10.70732895 -69.72061676 10.71763641 -70.86897278 10.72825623 C-74.17909435 11.01554371 -76.90151735 11.82778397 -80 13 C-80 12.34 -80 11.68 -80 11 C-72.1906762 7.81963456 -65.22247794 7.55935057 -56.84765625 7.55859375 C-55.49766117 7.5468007 -54.14767902 7.53343181 -52.79771423 7.51856995 C-49.27225703 7.48264516 -45.7469148 7.46225173 -42.22131348 7.44702148 C-36.55484869 7.42202944 -30.88863718 7.38261648 -25.2224102 7.32512093 C-23.24704532 7.30879532 -21.27158749 7.30537137 -19.29615784 7.30210876 C-18.10409225 7.29192215 -16.91202667 7.28173553 -15.68383789 7.27124023 C-14.63176651 7.26696518 -13.57969513 7.26269012 -12.4957428 7.25828552 C-9.82679682 7.24717031 -9.82679682 7.24717031 -8 5 C-6.68 5 -5.36 5 -4 5 C-4 3.68 -4 2.36 -4 1 C-2 0 -2 0 0 0 Z " fill="white" transform="translate(406,65)"/>
<path d="M0 0 C5.02898754 1.43685358 6.95677502 3.94236669 10 8 C11.40034018 10.80068037 11.13498646 13.12094578 11.14526367 16.25390625 C11.15483345 18.22605103 11.15483345 18.22605103 11.16459656 20.23803711 C11.166125 21.67952437 11.16723908 23.12101212 11.16796875 24.5625 C11.17118055 26.03458692 11.17454456 27.50667352 11.17805481 28.97875977 C11.18404683 32.06559998 11.18589459 35.15241219 11.18530273 38.23925781 C11.185201 42.20070138 11.19886468 46.16196617 11.21607494 50.12336731 C11.22717487 53.16362336 11.22922258 56.20383587 11.22869301 59.24411011 C11.22987572 60.70499285 11.23431373 62.16587663 11.24202538 63.6267395 C11.25178623 65.66650092 11.24769314 67.70631456 11.24291992 69.74609375 C11.24434494 70.90810303 11.24576996 72.0701123 11.24723816 73.26733398 C11 76 11 76 9 78 C8.99191315 77.15253204 8.98382629 76.30506409 8.97549438 75.43191528 C8.89764428 67.45625559 8.81038301 59.4807669 8.71247292 51.50532722 C8.66246695 47.40479051 8.61613754 43.3042801 8.578125 39.20361328 C8.54132617 35.24831801 8.49498144 31.29324055 8.44193649 27.33813095 C8.42336368 25.82705368 8.40826644 24.31592967 8.39665604 22.80478287 C8.37984247 20.69270638 8.35082079 18.58113192 8.31884766 16.46923828 C8.30552399 15.26566681 8.29220032 14.06209534 8.2784729 12.822052 C8.28790515 9.86507125 8.28790515 9.86507125 6 8 C5.71125 7.38125 5.4225 6.7625 5.125 6.125 C3.78740726 3.59843593 2.07936068 1.94073664 0 0 Z " fill="white" transform="translate(198,101)"/>
<path d="M0 0 C0.66 0.33 1.32 0.66 2 1 C-0.625 6.75 -0.625 6.75 -4 9 C-4.47879398 11.78598173 -4.47879398 11.78598173 -4.43237305 15.10205078 C-4.46206429 17.02381638 -4.46206429 17.02381638 -4.49235535 18.98440552 C-4.49912566 20.38803969 -4.50557246 21.79167546 -4.51171875 23.1953125 C-4.52855841 24.62736564 -4.54670768 26.05940393 -4.56611633 27.49142456 C-4.61370058 31.26266847 -4.643455 35.03385221 -4.66955566 38.80529785 C-4.69931904 42.65287158 -4.74586371 46.50023778 -4.79101562 50.34765625 C-4.87714436 57.89833472 -4.94444659 65.44902813 -5 73 C-5.66 73 -6.32 73 -7 73 C-7.09283662 64.75911868 -7.16383357 56.51845724 -7.20724869 48.27718163 C-7.22808989 44.45006158 -7.256343 40.62330031 -7.30175781 36.79638672 C-7.34534101 33.1005261 -7.36916318 29.40500974 -7.37950897 25.7089119 C-7.38687813 24.30152597 -7.40126863 22.89415807 -7.42292023 21.4869194 C-7.45211392 19.51018529 -7.45363525 17.53310196 -7.45410156 15.55615234 C-7.46298401 14.43252289 -7.47186646 13.30889343 -7.48101807 12.1512146 C-6.70566898 7.07179755 -3.76454375 3.38808937 0 0 Z " fill="white" transform="translate(468,45)"/>
<path d="M0 0 C1.28183167 -0.00960754 2.56366333 -0.01921509 3.88433838 -0.02911377 C5.29105451 -0.03396254 6.6977727 -0.03824118 8.10449219 -0.04199219 C9.54457603 -0.0477448 10.98465985 -0.05350252 12.42474365 -0.05926514 C15.44771685 -0.06977779 18.47066344 -0.07561818 21.49365234 -0.07910156 C25.35837669 -0.08457582 29.22274686 -0.10857942 33.08736038 -0.13707352 C36.06430061 -0.15574583 39.04115649 -0.16090801 42.01815033 -0.16243744 C43.4422473 -0.165456 44.86634307 -0.17345758 46.29038239 -0.18662262 C48.28856885 -0.20377131 50.28690157 -0.19994536 52.28515625 -0.1953125 C53.42051819 -0.19895813 54.55588013 -0.20260376 55.72564697 -0.20635986 C59.36521961 0.21480957 61.77880981 1.27188524 64.90136719 3.16113281 C65.39636719 4.15113281 65.39636719 4.15113281 65.90136719 5.16113281 C64.58136719 5.16113281 63.26136719 5.16113281 61.90136719 5.16113281 C61.40636719 4.17113281 61.40636719 4.17113281 60.90136719 3.16113281 C60.08117599 3.16557404 59.2609848 3.17001526 58.41593933 3.17459106 C50.69090484 3.21464539 42.96592063 3.24510578 35.24080944 3.26475716 C31.26913719 3.27519971 27.29755065 3.28936744 23.32592773 3.31201172 C19.49394703 3.33372339 15.66204883 3.34569789 11.83001137 3.3508873 C10.36715712 3.35458608 8.90430744 3.36180878 7.44148827 3.37259293 C5.39440483 3.38708579 3.34766349 3.38911171 1.30053711 3.38818359 C0.13471603 3.39262482 -1.03110504 3.39706604 -2.23225403 3.40164185 C-5.09863281 3.16113281 -5.09863281 3.16113281 -8.09863281 1.16113281 C-5.33713807 -0.21961456 -3.09048857 0.01863827 0 0 Z " fill="white" transform="translate(81.0986328125,42.8388671875)"/>
<path d="M0 0 C1.98029038 3.47513992 2.24560336 5.89222791 1.6015625 9.90625 C0.23007308 14.67974563 -2.33881527 17.96912913 -6.53060913 20.57040405 C-10.89993878 22.37082845 -14.4801091 22.43319828 -19.15478516 22.41650391 C-20.50708473 22.42938194 -20.50708473 22.42938194 -21.88670349 22.44252014 C-24.85423662 22.46752899 -27.82143373 22.47195451 -30.7890625 22.4765625 C-32.85599789 22.49087731 -34.92292374 22.50663518 -36.98983765 22.52377319 C-42.42323922 22.56558974 -47.85658168 22.59061036 -53.2901001 22.61126709 C-61.99389776 22.64710879 -70.69754956 22.70808056 -79.40119553 22.76975632 C-82.44126096 22.78884089 -85.48128737 22.80057443 -88.52139282 22.81118774 C-90.38226404 22.82139917 -92.24313446 22.83175703 -94.10400391 22.84228516 C-94.94981522 22.84332748 -95.79562653 22.84436981 -96.66706848 22.84544373 C-100.27729306 22.87070571 -103.52547378 23.02540607 -107 24 C-107 23.34 -107 22.68 -107 22 C-103.0518428 20.6839476 -99.27090242 20.83898932 -95.15405273 20.82641602 C-93.7975914 20.8163855 -93.7975914 20.8163855 -92.41372681 20.80615234 C-90.44940476 20.7921 -88.48506637 20.78020653 -86.52071953 20.77020454 C-83.41561284 20.75381132 -80.31062803 20.73057617 -77.20558167 20.70530701 C-68.37710621 20.6344698 -59.54858212 20.57428709 -50.7199707 20.52319336 C-45.32185024 20.49147338 -39.92387159 20.45022076 -34.52586555 20.40299797 C-32.46493125 20.38694134 -30.40396429 20.3746368 -28.34298515 20.36609077 C-25.46736033 20.35399114 -22.59207171 20.32986602 -19.71655273 20.30297852 C-18.85883774 20.30238937 -18.00112274 20.30180023 -17.11741638 20.30119324 C-12.58315194 20.44293302 -12.58315194 20.44293302 -9 18 C-7.68 18 -6.36 18 -5 18 C-4.71125 17.401875 -4.4225 16.80375 -4.125 16.1875 C-3 14 -3 14 -1 11 C-0.54227937 8.26127045 -0.54227937 8.26127045 -0.375 5.3125 C-0.30023437 4.31863281 -0.22546875 3.32476562 -0.1484375 2.30078125 C-0.07496094 1.16189453 -0.07496094 1.16189453 0 0 Z " fill="white" transform="translate(605,53)"/>
<path d="M0 0 C0.33 0.66 0.66 1.32 1 2 C0.34 2 -0.32 2 -1 2 C-0.67 3.98 -0.34 5.96 0 8 C-1.21780151 8.75893555 -1.21780151 8.75893555 -2.46020508 9.53320312 C-5.25876394 12.25132662 -5.58965536 13.55276882 -5.66764832 17.38195801 C-5.65744156 18.07059937 -5.6472348 18.75924072 -5.63671875 19.46875 C-5.64709671 20.186073 -5.65747467 20.903396 -5.66816711 21.64245605 C-5.69781116 23.92879361 -5.6944813 26.21350534 -5.6875 28.5 C-5.69640539 30.78603785 -5.7124068 33.07164237 -5.7389679 35.35754395 C-5.75383114 36.77763627 -5.75771672 38.19789748 -5.74919128 39.61804199 C-5.77013714 43.25272825 -6.01263049 45.90689455 -8 49 C-9.55466569 45.89066863 -9.08515695 42.61767991 -9.01953125 39.2109375 C-9.00540695 38.43368317 -8.99128265 37.65642883 -8.97673035 36.85562134 C-8.94357863 35.20625354 -8.90721792 33.55694764 -8.86791992 31.90771484 C-8.81317583 29.40588595 -8.78427715 26.90459018 -8.75585938 24.40234375 C-8.72036082 22.79683858 -8.68329952 21.19136705 -8.64453125 19.5859375 C-8.64016556 18.84604584 -8.63579987 18.10615417 -8.63130188 17.34384155 C-8.4550937 11.86333019 -7.00526471 7.60702601 -4 3 C-1.75 1 -1.75 1 0 0 Z " fill="white" transform="translate(71,45)"/>
<path d="M0 0 C0.33 0 0.66 0 1 0 C1.08636719 0.67546875 1.17273438 1.3509375 1.26171875 2.046875 C2.11982721 7.8612431 2.11982721 7.8612431 5.4375 12.5625 C9.93110741 15.08330416 13.92381189 15.20443817 18.94921875 15.31640625 C19.72183548 15.33718735 20.49445221 15.35796844 21.29048157 15.37937927 C23.7560648 15.44471038 26.22175361 15.50368315 28.6875 15.5625 C30.36003691 15.60570087 32.03256319 15.64931566 33.70507812 15.69335938 C37.8032775 15.8003749 41.90158296 15.90168857 46 16 C42.25328023 18.42331487 38.48033153 18.33921606 34.1640625 18.37109375 C33.40709076 18.38012222 32.65011902 18.3891507 31.87020874 18.39845276 C30.2715855 18.41293293 28.67290329 18.42183645 27.07421875 18.42553711 C24.63959978 18.43742869 22.20752153 18.48662503 19.7734375 18.53710938 C18.21615814 18.5465753 16.65886328 18.55380953 15.1015625 18.55859375 C14.37949615 18.57812607 13.65742981 18.59765839 12.91348267 18.61778259 C7.17889598 18.56707679 4.86570093 16.93088856 1 13 C-0.23975843 10.1313213 -0.1081614 7.354975 -0.0625 4.25 C-0.05347656 3.45078125 -0.04445313 2.6515625 -0.03515625 1.828125 C-0.02355469 1.22484375 -0.01195312 0.6215625 0 0 Z " fill="white" transform="translate(322,84)"/>
<path d="M0 0 C0.33 0 0.66 0 1 0 C1.01458252 1.05912598 1.02916504 2.11825195 1.04418945 3.20947266 C1.10237327 7.15707342 1.17960407 11.10411571 1.26245117 15.05126953 C1.29560636 16.75625512 1.32366737 18.46134798 1.34643555 20.16650391 C1.38015568 22.62448634 1.43247794 25.08149406 1.48828125 27.5390625 C1.49467117 28.29555084 1.5010611 29.05203918 1.50764465 29.83145142 C1.63710503 34.54241259 2.17234149 38.05468275 5 42 C10.09741874 44.96710726 14.52669247 45.46079624 20.33984375 45.51171875 C21.10680069 45.52966995 21.87375763 45.54762115 22.66395569 45.56611633 C25.08841626 45.6198448 27.51268432 45.65399275 29.9375 45.6875 C31.59182346 45.72070634 33.24612162 45.75519902 34.90039062 45.79101562 C38.93345393 45.87554886 42.96646388 45.94253679 47 46 C47 46.33 47 46.66 47 47 C41.67978261 47.04953293 36.35970024 47.08578256 31.03930664 47.10986328 C29.23036357 47.11990487 27.42143667 47.1335408 25.61254883 47.15087891 C23.00858565 47.17520832 20.40483758 47.18650161 17.80078125 47.1953125 C16.59268547 47.21079636 16.59268547 47.21079636 15.36018372 47.22659302 C7.59686974 47.22813527 7.59686974 47.22813527 4 45 C-0.37508739 40.11420565 -0.54691015 36.10623978 -0.390625 29.8828125 C-0.38496521 29.02565643 -0.37930542 28.16850037 -0.37347412 27.28536987 C-0.35119639 24.5646632 -0.30101774 21.84530432 -0.25 19.125 C-0.2299238 17.27345661 -0.211675 15.42189244 -0.1953125 13.5703125 C-0.15136001 9.0463607 -0.08239359 4.52340836 0 0 Z " fill="white" transform="translate(151,54)"/>
<path d="M0 0 C1.5 1.375 1.5 1.375 3 3 C3 3.66 3 4.32 3 5 C3.9075 5 4.815 5 5.75 5 C8.16666667 5 10.58333333 5 13 5 C13 5.66 13 6.32 13 7 C13.99 6.67 14.98 6.34 16 6 C15.67 7.98 15.34 9.96 15 12 C15.99 12 16.98 12 18 12 C17.67 10.68 17.34 9.36 17 8 C17.66 8.33 18.32 8.66 19 9 C19 9.66 19 10.32 19 11 C20.32 11.33 21.64 11.66 23 12 C17.32015619 13.96212786 13.70017835 14.32230623 8.05078125 12.1171875 C4.64273071 10.2606114 3.09823303 8.27848911 1 5 C0.1875 2.125 0.1875 2.125 0 0 Z " fill="white" transform="translate(291,175)"/>
<path d="M0 0 C0.81501984 0.16076523 1.63003967 0.32153046 2.46975708 0.48716736 C6.48795403 1.07088429 10.43331311 1.17517265 14.48388672 1.20532227 C15.31381638 1.21522186 16.14374603 1.22512146 16.99882507 1.23532104 C19.72575079 1.26675812 22.45269389 1.29162268 25.1796875 1.31640625 C27.07683754 1.33699116 28.97398315 1.35798803 30.87112427 1.37937927 C35.85229902 1.43444119 40.83351407 1.4839202 45.8147583 1.53222656 C50.90258347 1.58255787 55.99035048 1.6381831 61.078125 1.69335938 C71.05203359 1.80074659 81.02599278 1.90223435 91 2 C91 2.33 91 2.66 91 3 C80.29920806 3.17727952 69.59830554 3.34321269 58.89711666 3.49477577 C53.92780556 3.56551127 48.95861592 3.64011228 43.98950195 3.72363281 C39.19152029 3.80413331 34.39348685 3.87436814 29.59524727 3.93757248 C27.76723279 3.96343959 25.93926623 3.99296737 24.11137199 4.02626419 C21.5455529 4.07236957 18.97987 4.10530117 16.41381836 4.13525391 C15.66287399 4.1517952 14.91192963 4.16833649 14.13822937 4.18537903 C9.32627955 4.22388038 5.47698778 3.6461522 1 2 C0.67 1.34 0.34 0.68 0 0 Z " fill="white" transform="translate(695,185)"/>
<path d="M0 0 C1.32 0.33 2.64 0.66 4 1 C-1.61 6.61 -7.22 12.22 -13 18 C-14.53445094 14.93109813 -13.54984289 12.29905734 -13 9 C-12.01 8.67 -11.02 8.34 -10 8 C-9.67 7.34 -9.34 6.68 -9 6 C-8 4 -8 4 -5 3 C-5 3.99 -5 4.98 -5 6 C-4.34 4.68 -3.68 3.36 -3 2 C-2.01 2 -1.02 2 0 2 C0 1.34 0 0.68 0 0 Z " fill="white" transform="translate(968,154)"/>
<path d="M0 0 C0.99 0.495 0.99 0.495 2 1 C3.2416002 4.72480061 3.17392741 8.21636985 3.2109375 12.09765625 C3.2389895 13.71941142 3.26765384 15.3411561 3.296875 16.96289062 C3.33825147 19.5196115 3.37513984 22.07613278 3.40136719 24.63305664 C3.42887388 27.10083342 3.47472266 29.5677195 3.5234375 32.03515625 C3.5283168 33.18673973 3.5283168 33.18673973 3.53329468 34.36158752 C3.55449085 36.74392795 3.55449085 36.74392795 4 40 C4.99 40.66 5.98 41.32 7 42 C6.34 42.99 5.68 43.98 5 45 C0.73987157 39.81375669 0.822124 35.0530509 0.68359375 28.515625 C0.66281265 27.70003113 0.64203156 26.88443726 0.62062073 26.04412842 C0.55538703 23.44616895 0.49636232 20.84811087 0.4375 18.25 C0.39428986 16.485667 0.35067478 14.72134387 0.30664062 12.95703125 C0.19973255 8.63812116 0.09839173 4.31911216 0 0 Z " fill="white" transform="translate(62,138)"/>
<path d="M0 0 C0.99 0.33 1.98 0.66 3 1 C1.91142273 2.48445129 1.91142273 2.48445129 0 4 C-2.94230652 4.32279968 -2.94230652 4.32279968 -6.58276367 4.2487793 C-7.24644455 4.23946381 -7.91012543 4.23014832 -8.59391785 4.22055054 C-10.78578922 4.18619772 -12.97655468 4.13030403 -15.16796875 4.07421875 C-16.68823396 4.04618392 -18.20852452 4.01949369 -19.72883606 3.99409485 C-23.72898178 3.92364986 -27.72852204 3.83493073 -31.72821045 3.74243164 C-35.81013509 3.6512562 -39.89236777 3.57732536 -43.97460938 3.50195312 C-51.9834759 3.35153417 -59.99178497 3.18181297 -68 3 C-68 2.67 -68 2.34 -68 2 C-66.76638229 1.9845388 -66.76638229 1.9845388 -65.50784302 1.96876526 C-57.76770086 1.87089832 -50.02764063 1.76839944 -42.28763008 1.66066074 C-38.3081555 1.60543201 -34.32867356 1.5520121 -30.34912109 1.50268555 C-26.51060359 1.45504123 -22.67217659 1.40269842 -18.83376694 1.34705925 C-17.36733114 1.32663599 -15.90087053 1.30792285 -14.43439102 1.29092598 C-12.38471735 1.26688124 -10.33521518 1.236827 -8.28564453 1.20532227 C-7.11760284 1.18977798 -5.94956116 1.1742337 -4.74612427 1.15821838 C-2.03798594 1.18358711 -2.03798594 1.18358711 0 0 Z " fill="white" transform="translate(171,154)"/>
<path d="M0 0 C1.22355698 0.00222061 2.44711395 0.00444122 3.70774841 0.00672913 C4.71746201 0.00651009 4.71746201 0.00651009 5.74757385 0.00628662 C7.98229649 0.00698573 10.21693674 0.01477799 12.4516449 0.02259827 C13.99721226 0.02446245 15.54278022 0.02588635 17.08834839 0.02688599 C21.16380941 0.03071112 25.23923502 0.04054135 29.31468201 0.05158997 C33.47035747 0.0618042 37.62603864 0.06638363 41.78172302 0.07142639 C49.94124452 0.08216363 58.10073718 0.09923998 66.26023865 0.12025452 C66.26023865 0.45025452 66.26023865 0.78025452 66.26023865 1.12025452 C65.45923737 1.12612076 64.65823608 1.131987 63.83296204 1.13803101 C56.27052452 1.19602423 48.70841398 1.26813851 41.14626884 1.35596943 C37.25882429 1.40062617 33.3714834 1.43989235 29.48387146 1.46669006 C25.72947577 1.49277034 21.97547999 1.53320538 18.22133255 1.58344078 C16.79172377 1.60007772 15.36204587 1.61161174 13.93235397 1.61786842 C11.9241863 1.62754319 9.91614642 1.65732879 7.90818787 1.68788147 C6.76679352 1.69898453 5.62539917 1.71008759 4.44941711 1.7215271 C0.85640884 2.17074339 -1.61188579 3.33759554 -4.73976135 5.12025452 C-3.61944782 0.15886601 -3.61944782 0.15886601 0 0 Z " fill="white" transform="translate(102.73976135253906,130.87974548339844)"/>
<path d="M0 0 C0.99 0 1.98 0 3 0 C2.83923477 0.5332489 2.67846954 1.0664978 2.51283264 1.61590576 C1.89229714 4.50069702 1.83667532 7.19367774 1.79467773 10.14550781 C1.77473251 11.38649231 1.75478729 12.62747681 1.73423767 13.90606689 C1.71725607 15.255085 1.70037717 16.60410441 1.68359375 17.953125 C1.66301124 19.33746951 1.64201443 20.72180792 1.62062073 22.10614014 C1.56553393 25.742544 1.51606586 29.37900333 1.46777344 33.01550293 C1.41746036 36.72913525 1.36182558 40.44268744 1.30664062 44.15625 C1.19922296 51.43743206 1.09774192 58.71868094 1 66 C0.67 66 0.34 66 0 66 C0 44.22 0 22.44 0 0 Z " fill="white" transform="translate(492,80)"/>
<path d="M0 0 C0.66 0 1.32 0 2 0 C2 20.13 2 40.26 2 61 C1.67 61 1.34 61 1 61 C0.98969254 60.30508957 0.97938507 59.61017914 0.96876526 58.89421082 C0.87080081 52.34637933 0.76828783 45.79863672 0.66066074 39.25095654 C0.60548878 35.88470387 0.55207803 32.51844243 0.50268555 29.15209961 C0.44503363 25.28230386 0.38132432 21.41264856 0.31640625 17.54296875 C0.29969376 16.33352097 0.28298126 15.12407318 0.26576233 13.87797546 C0.24581711 12.75703995 0.22587189 11.63610443 0.20532227 10.48120117 C0.18977798 9.49302902 0.1742337 8.50485687 0.15821838 7.48674011 C0.09786217 4.86800044 0.09786217 4.86800044 -1 2 C-0.67 1.34 -0.34 0.68 0 0 Z " fill="white" transform="translate(490,84)"/>
<path d="M0 0 C1.32 0 2.64 0 4 0 C2.25422596 4.17919835 0.28229758 5.36571273 -3.72583008 7.21008301 C-7.50670936 8.52334494 -11.12106292 8.60319585 -15.09375 8.609375 C-16.34194519 8.63417938 -16.34194519 8.63417938 -17.61535645 8.65948486 C-20.24364852 8.70763046 -22.87136354 8.7292603 -25.5 8.75 C-27.29429935 8.7781878 -29.0885722 8.80811912 -30.8828125 8.83984375 C-35.25516074 8.91337973 -39.6271949 8.96315766 -44 9 C-43.67 8.34 -43.34 7.68 -43 7 C-41.48031616 6.97812622 -41.48031616 6.97812622 -39.92993164 6.95581055 C-36.13320469 6.89737572 -32.33704313 6.82015027 -28.54077148 6.73754883 C-26.90479786 6.70451025 -25.26871601 6.6764143 -23.63256836 6.65356445 C-11.0248271 6.51838667 -11.0248271 6.51838667 1 3 C0.505 1.515 0.505 1.515 0 0 Z " fill="white" transform="translate(770,124)"/>
<path d="M0 0 C0.33 0.66 0.66 1.32 1 2 C1.66 2.33 2.32 2.66 3 3 C2.34 3 1.68 3 1 3 C1.309375 3.804375 1.61875 4.60875 1.9375 5.4375 C2.81848468 8.39138981 3.17039204 10.60578499 3.375 13.625 C3.74086725 17.7392808 4.78640722 19.30472864 8 22 C8 22.99 8 23.98 8 25 C5.10045598 24.00015724 4.06710871 23.10324417 2.375 20.5 C0.91395452 16.78097515 0.2362021 13.26463552 -0.4609375 9.34765625 C-1.11562292 6.49645378 -2.27515913 4.35205573 -4 2 C-2.68 2.33 -1.36 2.66 0 3 C0 2.01 0 1.02 0 0 Z " fill="white" transform="translate(460,160)"/>
<path d="M0 0 C0.66 0.33 1.32 0.66 2 1 C1.195625 1.763125 0.39125 2.52625 -0.4375 3.3125 C-4.29604245 7.35926404 -4.1159124 10.29284784 -4.0625 15.6875 C-4.04896484 17.45673828 -4.04896484 17.45673828 -4.03515625 19.26171875 C-4.02355469 20.16535156 -4.01195312 21.06898437 -4 22 C-3.01 22 -2.02 22 -1 22 C-0.67 22.99 -0.34 23.98 0 25 C1.49985609 26.66710346 1.49985609 26.66710346 3 28 C-1.42326378 26.64844718 -3.40412982 24.80109562 -6 21 C-7.53978427 16.3806472 -7.97220892 11.55565809 -6.2109375 6.92578125 C-4.47916896 3.77290494 -3.01229951 2.00819967 0 0 Z " fill="white" transform="translate(42,102)"/>
<path d="M0 0 C2.75328098 2.37783357 3.96944911 4.51198161 5 8 C5.25 11.6875 5.25 11.6875 5 15 C4.34 15.66 3.68 16.32 3 17 C3.33 15.02 3.66 13.04 4 11 C3.34 11 2.68 11 2 11 C1.67 11.99 1.34 12.98 1 14 C-2.0720339 9.57627119 -2.0720339 9.57627119 -1.75 7 C-1.5025 6.34 -1.255 5.68 -1 5 C-0.65939189 3.33480481 -0.32441604 1.66842534 0 0 Z " fill="white" transform="translate(403,48)"/>
<path d="M0 0 C2.5625 1.625 2.5625 1.625 3.5625 3.625 C2.86769531 3.29757813 2.17289063 2.97015625 1.45703125 2.6328125 C-1.80118828 1.49837169 -4.31199502 1.42443945 -7.75 1.5 C-8.81863281 1.51804688 -9.88726563 1.53609375 -10.98828125 1.5546875 C-12.20064453 1.58949219 -12.20064453 1.58949219 -13.4375 1.625 C-13.7675 2.285 -14.0975 2.945 -14.4375 3.625 C-15.4275 3.955 -16.4175 4.285 -17.4375 4.625 C-19.14605022 7.62507271 -19.14605022 7.62507271 -20.4375 10.625 C-21.0975 10.625 -21.7575 10.625 -22.4375 10.625 C-21.9346962 6.26736704 -19.38448863 3.70594266 -16.4375 0.625 C-11.1848361 -2.49820556 -5.48730968 -2.19492387 0 0 Z " fill="white" transform="translate(853.4375,44.375)"/>
<path d="M0 0 C5.46309388 0.06896018 10.92542848 0.15696754 16.38793945 0.26245117 C18.2452755 0.29565549 20.10271137 0.32370141 21.96020508 0.34643555 C24.63405798 0.38006442 27.30699993 0.43238374 29.98046875 0.48828125 C31.2213752 0.49786613 31.2213752 0.49786613 32.48735046 0.50764465 C37.15448001 0.62601748 40.14615634 1.07815384 44 4 C42.25 4.625 42.25 4.625 40 5 C39.45359863 4.68482422 38.90719727 4.36964844 38.34423828 4.04492188 C35.03154093 2.5683186 31.80591482 2.68248664 28.2421875 2.65625 C27.49792511 2.6416272 26.75366272 2.62700439 25.98684692 2.61193848 C22.81057545 2.54978036 19.63411493 2.50996616 16.45751953 2.46826172 C14.13553253 2.43459599 11.81396298 2.38948438 9.4921875 2.34375 C8.77134979 2.3384729 8.05051208 2.3331958 7.30783081 2.32775879 C2.2256475 2.2256475 2.2256475 2.2256475 0 0 Z " fill="white" transform="translate(727,99)"/>
<path d="M0 0 C3.44495204 2.29663469 5.3873697 4.52261399 7.8125 7.875 C7.8125 8.535 7.8125 9.195 7.8125 9.875 C6.8225 9.875 5.8325 9.875 4.8125 9.875 C4.750625 9.09125 4.68875 8.3075 4.625 7.5 C4.356875 6.63375 4.08875 5.7675 3.8125 4.875 C1.36961372 3.56431667 1.36961372 3.56431667 -1.1875 2.875 C-1.5175 2.545 -1.8475 2.215 -2.1875 1.875 C-4.37389453 1.80241054 -6.56250389 1.79126217 -8.75 1.8125 C-9.94753906 1.82152344 -11.14507813 1.83054688 -12.37890625 1.83984375 C-13.76916016 1.85724609 -13.76916016 1.85724609 -15.1875 1.875 C-12.62113856 -3.25772288 -4.52264977 -1.59622933 0 0 Z " fill="white" transform="translate(995.1875,44.125)"/>
<path d="M0 0 C6.14520484 5.98763548 6.14520484 5.98763548 6.25 11.8125 C6.20775218 15.98296359 5.89591492 18.78231675 3 22 C2.01 22 1.02 22 0 22 C0.48082031 21.45859375 0.96164062 20.9171875 1.45703125 20.359375 C3.31323558 17.52102712 3.48737656 15.61207374 3.6875 12.25 C3.75324219 11.26515625 3.81898438 10.2803125 3.88671875 9.265625 C3.92410156 8.51796875 3.96148438 7.7703125 4 7 C3.01 6.67 2.02 6.34 1 6 C0.67 4.02 0.34 2.04 0 0 Z " fill="white" transform="translate(799,47)"/>
<path d="M0 0 C4 0 4 0 6.6875 2.4375 C7.450625 3.283125 8.21375 4.12875 9 5 C9.33 5.33 9.66 5.66 10 6 C11.07507249 14.29341639 11.07507249 14.29341639 8.8828125 17.7734375 C7.5 19.125 7.5 19.125 5 21 C5.33 20.13375 5.66 19.2675 6 18.375 C7.03019151 14.89810365 7.44897704 12.59181632 7 9 C5.0475001 5.56629327 2.93939026 2.64545123 0 0 Z " fill="white" transform="translate(169,132)"/>
<path d="M0 0 C0 0.66 0 1.32 0 2 C-1.1446875 2.86625 -1.1446875 2.86625 -2.3125 3.75 C-5.29694969 6.24860904 -6.47180965 8.46103287 -8 12 C-8.66 12 -9.32 12 -10 12 C-10 13.32 -10 14.64 -10 16 C-10.66 16 -11.32 16 -12 16 C-11.09603837 9.80718821 -10.07921721 6.08815044 -5 2 C-2 0 -2 0 0 0 Z " fill="white" transform="translate(444,129)"/>
<path d="M0 0 C0.99 0.33 1.98 0.66 3 1 C3 1.66 3 2.32 3 3 C3.99 3 4.98 3 6 3 C4.49223521 7.22174141 1.84835938 8.88717524 -2 11 C-4.875 11.25 -4.875 11.25 -7 11 C-5.68 10.67 -4.36 10.34 -3 10 C-3 9.34 -3 8.68 -3 8 C-2.01 7.67 -1.02 7.34 0 7 C-0.185625 6.030625 -0.37125 5.06125 -0.5625 4.0625 C-0.706875 3.051875 -0.85125 2.04125 -1 1 C-0.67 0.67 -0.34 0.34 0 0 Z " fill="white" transform="translate(371,177)"/>
<path d="M0 0 C0.53625 0.28875 1.0725 0.5775 1.625 0.875 C4.04540375 2.12800266 4.04540375 2.12800266 7.0625 2.6875 C10 4 10 4 11.6875 7.375 C12.120625 8.57125 12.55375 9.7675 13 11 C14.56328365 13.33878876 14.56328365 13.33878876 16 15 C11.69422496 13.33830526 8.90988145 10.16919694 5.75 6.9375 C5.19570313 6.38255859 4.64140625 5.82761719 4.0703125 5.25585938 C0 1.14043257 0 1.14043257 0 0 Z " fill="white" transform="translate(875,167)"/>
<path d="M0 0 C1.33333333 0.66666667 2.66666667 1.33333333 4 2 C5.546875 2.7115625 5.546875 2.7115625 7.125 3.4375 C11.10299469 5.59945364 12.8848512 9.07186652 15 13 C14.67 13.66 14.34 14.32 14 15 C11.66265901 12.69152056 9.33081534 10.37756659 7 8.0625 C6.33226562 7.40314453 5.66453125 6.74378906 4.9765625 6.06445312 C4.34492187 5.43603516 3.71328125 4.80761719 3.0625 4.16015625 C2.47597656 3.57886963 1.88945313 2.99758301 1.28515625 2.39868164 C0 1 0 1 0 0 Z " fill="white" transform="translate(858,150)"/>
<path d="M0 0 C1 2 1 2 0.80078125 3.96875 C-0.23670088 6.60041199 -1.35888474 7.15256008 -3.8125 8.5 C-7.01077024 10.35465222 -9.52142625 12.21160454 -12 15 C-12.66 14.67 -13.32 14.34 -14 14 C-9.38 9.38 -4.76 4.76 0 0 Z " fill="white" transform="translate(949,135)"/>
<path d="M0 0 C1.32 0.33 2.64 0.66 4 1 C4 1.66 4 2.32 4 3 C4.66 3 5.32 3 6 3 C6 3.66 6 4.32 6 5 C6.66 5 7.32 5 8 5 C8 5.66 8 6.32 8 7 C8.66 7.33 9.32 7.66 10 8 C8.02 8.99 8.02 8.99 6 10 C2.79851787 7.86567858 2.47793261 7.31580104 1.3125 3.875 C1.06113281 3.15054688 0.80976562 2.42609375 0.55078125 1.6796875 C0.36902344 1.12539062 0.18726563 0.57109375 0 0 Z " fill="white" transform="translate(871,123)"/>
<path d="M0 0 C1.9786355 3.47223583 2.24757064 5.88717766 1.6015625 9.8984375 C0.55783189 13.54471717 -1.19064309 16.44333657 -4 19 C-7.3125 19.9375 -7.3125 19.9375 -10 20 C-9.67 19.34 -9.34 18.68 -9 18 C-7.68 18 -6.36 18 -5 18 C-4.71125 17.401875 -4.4225 16.80375 -4.125 16.1875 C-3 14 -3 14 -1 11 C-0.54227937 8.26127045 -0.54227937 8.26127045 -0.375 5.3125 C-0.30023437 4.31863281 -0.22546875 3.32476562 -0.1484375 2.30078125 C-0.09945312 1.54152344 -0.05046875 0.78226563 0 0 Z " fill="white" transform="translate(605,53)"/>
<path d="M0 0 C2.125 0.375 2.125 0.375 4 1 C2.42617053 2.65492374 0.84057098 4.29866024 -0.75 5.9375 C-1.63171875 6.85402344 -2.5134375 7.77054688 -3.421875 8.71484375 C-5.80176695 10.82429343 -6.9099375 11.66067071 -10 12 C-9.236875 11.278125 -8.47375 10.55625 -7.6875 9.8125 C-5.27636338 7.28921749 -3.70779581 5.00897358 -2 2 C-1.34 1.34 -0.68 0.68 0 0 Z " fill="white" transform="translate(950,172)"/>
<path d="M0 0 C2.87328071 0.31925341 4.75877438 0.84148031 7.1875 2.4375 C9.86231647 6.21913707 10.80768673 10.3844814 11 15 C10.0390625 17.3125 10.0390625 17.3125 9 19 C8.89042969 18.09636719 8.78085937 17.19273437 8.66796875 16.26171875 C8.50941406 15.08222656 8.35085938 13.90273437 8.1875 12.6875 C8.03667969 11.51574219 7.88585937 10.34398437 7.73046875 9.13671875 C6.99793229 5.991121 6.68721125 4.73509911 4 3 C2.68 3 1.36 3 0 3 C0 2.01 0 1.02 0 0 Z " fill="white" transform="translate(596,159)"/>
<path d="M0 0 C0.66 0 1.32 0 2 0 C2 0.99 2 1.98 2 3 C2.99 3.33 3.98 3.66 5 4 C4.34 4 3.68 4 3 4 C4.22851628 6.52066803 4.22851628 6.52066803 6 9 C8.06874034 9.6425235 8.06874034 9.6425235 10 10 C10.33 10.99 10.66 11.98 11 13 C6.73709821 12.52634425 4.78451042 10.07761678 2 7 C0 4 0 4 0 0 Z " fill="white" transform="translate(433,146)"/>
<path d="M0 0 C0.66 0.33 1.32 0.66 2 1 C-0.625 6.75 -0.625 6.75 -4 9 C-4.57748803 10.96361864 -4.57748803 10.96361864 -4.6875 13.125 C-4.790625 14.40375 -4.89375 15.6825 -5 17 C-5.33 17 -5.66 17 -6 17 C-6.92017937 8.5309417 -6.92017937 8.5309417 -4.6640625 4.77734375 C-3.18027954 3.08109421 -1.67546697 1.50592567 0 0 Z " fill="white" transform="translate(468,45)"/>
<path d="M0 0 C0.66 0 1.32 0 2 0 C0.5140084 4.59306496 -1.85014682 7.43569245 -5 11 C-5.33 9.68 -5.66 8.36 -6 7 C-5.34 7 -4.68 7 -4 7 C-4.33 6.01 -4.66 5.02 -5 4 C-4.34 3.67 -3.68 3.34 -3 3 C-2.67 2.34 -2.34 1.68 -2 1 C-1.34 1.33 -0.68 1.66 0 2 C0 1.34 0 0.68 0 0 Z " fill="white" transform="translate(999,122)"/>
<path d="M0 0 C0 0.33 0 0.66 0 1 C-0.59167969 1.08636719 -1.18335937 1.17273438 -1.79296875 1.26171875 C-7.33840956 2.24777593 -10.38908358 3.4042882 -14 8 C-14.66 9.32 -15.32 10.64 -16 12 C-15.67 9.03 -15.34 6.06 -15 3 C-9.63999211 0.74315457 -5.8022175 -0.36263859 0 0 Z " fill="white" transform="translate(111,74)"/>
<path d="M0 0 C2.475 0.495 2.475 0.495 5 1 C5 1.66 5 2.32 5 3 C10.73842251 3.20413361 15.60539047 3.27141454 21 1 C18.00392559 4.13225961 16.16244757 5.17024698 11.8125 5.3125 C6.83786591 5.28835129 4.06590524 3.76827591 0 1 C0 0.67 0 0.34 0 0 Z " fill="white" transform="translate(636,70)"/>
<path d="M0 0 C-1.34536377 4.4030087 -3.16052312 6.471564 -7 9 C-7.99 9 -8.98 9 -10 9 C-9.34 7.68 -8.68 6.36 -8 5 C-6.68 5 -5.36 5 -4 5 C-4 3.68 -4 2.36 -4 1 C-2 0 -2 0 0 0 Z " fill="white" transform="translate(406,65)"/>
<path d="M0 0 C0.99 0.33 1.98 0.66 3 1 C1.38819592 2.95066193 0.56985222 3.92886446 -1.99291992 4.2487793 C-3.10050659 4.16237183 -3.10050659 4.16237183 -4.23046875 4.07421875 C-5.43413086 3.99204102 -5.43413086 3.99204102 -6.66210938 3.90820312 C-7.49548828 3.83537109 -8.32886719 3.76253906 -9.1875 3.6875 C-10.03248047 3.62626953 -10.87746094 3.56503906 -11.74804688 3.50195312 C-13.83312095 3.34881209 -15.91675276 3.17625843 -18 3 C-18 2.67 -18 2.34 -18 2 C-16.86820313 1.93941406 -15.73640625 1.87882813 -14.5703125 1.81640625 C-13.08852855 1.73200083 -11.6067584 1.64735283 -10.125 1.5625 C-9.37863281 1.52318359 -8.63226563 1.48386719 -7.86328125 1.44335938 C-3.80013136 1.28426376 -3.80013136 1.28426376 0 0 Z " fill="white" transform="translate(171,154)"/>
<path d="M0 0 C1.32 0.33 2.64 0.66 4 1 C1.03 3.97 -1.94 6.94 -5 10 C-5.66 9.01 -6.32 8.02 -7 7 C-6.360625 6.731875 -5.72125 6.46375 -5.0625 6.1875 C-2.66868314 5.11332248 -2.66868314 5.11332248 -2 2 C-1.34 2 -0.68 2 0 2 C0 1.34 0 0.68 0 0 Z " fill="white" transform="translate(982,140)"/>
<path d="M0 0 C5.91814028 5.7663931 5.91814028 5.7663931 6.16796875 9.53125 C6.17441406 10.5109375 6.18085938 11.490625 6.1875 12.5 C6.20167969 13.4796875 6.21585937 14.459375 6.23046875 15.46875 C6 18 6 18 4 20 C4.01160156 19.18015625 4.02320313 18.3603125 4.03515625 17.515625 C4.04417969 16.43796875 4.05320312 15.3603125 4.0625 14.25 C4.07410156 13.18265625 4.08570313 12.1153125 4.09765625 11.015625 C4.01510087 8.46631499 3.74617558 6.42066409 3 4 C1.68 3.67 0.36 3.34 -1 3 C-0.67 2.01 -0.34 1.02 0 0 Z " fill="white" transform="translate(373,103)"/>
<path d="M0 0 C3.66060821 0.58536753 5.54535164 2.083239 8.25 4.5625 C8.95640625 5.20316406 9.6628125 5.84382812 10.390625 6.50390625 C10.92171875 6.99761719 11.4528125 7.49132812 12 8 C10.125 8.60546875 10.125 8.60546875 8 9 C6 7.3125 6 7.3125 4 5 C3.2575 4.278125 2.515 3.55625 1.75 2.8125 C0 1 0 1 0 0 Z " fill="white" transform="translate(895,147)"/>
<path d="M0 0 C0.556875 0.309375 1.11375 0.61875 1.6875 0.9375 C4.12540433 2.05761821 6.36224186 2.56037364 9 3 C9.33 5.31 9.66 7.62 10 10 C2.51708428 3.84965831 2.51708428 3.84965831 0 0 Z " fill="white" transform="translate(844,136)"/>
<path d="M0 0 C2.475 0.99 2.475 0.99 5 2 C3.35830472 4.02054804 1.69088222 6.02043058 0 8 C-0.33 8 -0.66 8 -1 8 C-1.04241723 5.66705225 -1.04092937 3.33297433 -1 1 C-0.67 0.67 -0.34 0.34 0 0 Z " fill="white" transform="translate(987,132)"/>
<path d="M0 0 C1 2 1 2 0.44140625 3.9453125 C0.15136719 4.66460937 -0.13867188 5.38390625 -0.4375 6.125 C-0.72496094 6.84945312 -1.01242188 7.57390625 -1.30859375 8.3203125 C-1.53675781 8.87460938 -1.76492187 9.42890625 -2 10 C-2.66 9.34 -3.32 8.68 -4 8 C-3.67 7.34 -3.34 6.68 -3 6 C-4.65 6 -6.3 6 -8 6 C-7.01 5.34 -6.02 4.68 -5 4 C-3.32576317 2.67618483 -1.65788785 1.34423339 0 0 Z " fill="white" transform="translate(61,94)"/>
<path d="M0 0 C2.50037734 2.17424117 3.43628586 3.73045798 4 7 C2.68 7.33 1.36 7.66 0 8 C-1.09658936 4.71023192 -0.79953138 3.28696233 0 0 Z " fill="white" transform="translate(403,48)"/>
<path d="M0 0 C0 0.66 0 1.32 0 2 C-4.62 1.01 -9.24 0.02 -14 -1 C-14 -1.33 -14 -1.66 -14 -2 C-8.87160006 -3.81975482 -4.82315618 -1.8599099 0 0 Z " fill="white" transform="translate(59,132)"/>
<path d="M0 0 C0.33 0 0.66 0 1 0 C1.10957031 0.67546875 1.21914063 1.3509375 1.33203125 2.046875 C1.49058594 2.93890625 1.64914062 3.8309375 1.8125 4.75 C1.96332031 5.63171875 2.11414063 6.5134375 2.26953125 7.421875 C3.05414248 10.1910911 4.14595359 11.8259401 6 14 C4.35 13.67 2.7 13.34 1 13 C0.1276588 10.00519083 -0.10829766 7.36424089 -0.0625 4.25 C-0.05347656 3.45078125 -0.04445313 2.6515625 -0.03515625 1.828125 C-0.02355469 1.22484375 -0.01195312 0.6215625 0 0 Z " fill="white" transform="translate(322,84)"/>
<path d="M0 0 C0.66 0.33 1.32 0.66 2 1 C2 1.66 2 2.32 2 3 C1.01 3.33 0.02 3.66 -1 4 C-2.70855022 7.00007271 -2.70855022 7.00007271 -4 10 C-4.66 10 -5.32 10 -6 10 C-5.49477778 5.62140745 -2.82172778 3.18348776 0 0 Z " fill="white" transform="translate(837,45)"/>
<path d="M0 0 C5.5 1.46666667 5.5 1.46666667 7.875 4 C9 6 9 6 9 8 C8.01 8 7.02 8 6 8 C5.9071875 6.824375 5.9071875 6.824375 5.8125 5.625 C5.544375 4.75875 5.27625 3.8925 5 3 C2.52363988 1.62533375 2.52363988 1.62533375 0 1 C0 0.67 0 0.34 0 0 Z " fill="white" transform="translate(994,46)"/>
<path d="M0 0 C1.70884005 1.62339805 3.37446717 3.29319053 5 5 C5 5.66 5 6.32 5 7 C5.66 7 6.32 7 7 7 C7.33 7.99 7.66 8.98 8 10 C4.20401451 8.50871999 2.28279601 6.34266559 0 3 C0 2.01 0 1.02 0 0 Z " fill="white" transform="translate(348,176)"/>
<path d="M0 0 C3.36720387 1.39332574 4.9859524 2.9789286 7 6 C6.01 6.33 5.02 6.66 4 7 C2 5.1875 2 5.1875 0 3 C0 2.01 0 1.02 0 0 Z " fill="white" transform="translate(884,135)"/>
<path d="M0 0 C0.33 0.66 0.66 1.32 1 2 C1.33 1.34 1.66 0.68 2 0 C2.66 0 3.32 0 4 0 C4.1875 2.375 4.1875 2.375 4 5 C3.01 5.66 2.02 6.32 1 7 C-1 4 -1 4 -0.625 1.8125 C-0.41875 1.214375 -0.2125 0.61625 0 0 Z " fill="white" transform="translate(315,178)"/>
<path d="M0 0 C0 0.99 0 1.98 0 3 C-2.8125 5.75 -2.8125 5.75 -6 8 C-6.99 7.67 -7.98 7.34 -9 7 C-8.443125 6.773125 -7.88625 6.54625 -7.3125 6.3125 C-4.36753316 4.64103234 -2.31843456 2.44723648 0 0 Z " fill="white" transform="translate(376,123)"/>
<path d="M0 0 C0.33 0.99 0.66 1.98 1 3 C-2.06246747 4.78409802 -4.22079273 5.22880021 -7.75 5.125 C-8.54921875 5.10695312 -9.3484375 5.08890625 -10.171875 5.0703125 C-10.77515625 5.04710937 -11.3784375 5.02390625 -12 5 C-12 4.67 -12 4.34 -12 4 C-11.38511719 3.87882812 -10.77023437 3.75765625 -10.13671875 3.6328125 C-9.32847656 3.46523437 -8.52023437 3.29765625 -7.6875 3.125 C-6.88699219 2.96257812 -6.08648437 2.80015625 -5.26171875 2.6328125 C-2.74698882 2.05521001 -2.74698882 2.05521001 0 0 Z " fill="white" transform="translate(457,124)"/>
<path d="M0 0 C1.65 1.32 3.3 2.64 5 4 C3.6875 5.5 3.6875 5.5 2 7 C1.01 7 0.02 7 -1 7 C-0.67 4.69 -0.34 2.38 0 0 Z " fill="white" transform="translate(722,95)"/>
<path d="M0 0 C3.16115776 1.36983503 3.9927092 1.9890638 6 5 C5.67 5.66 5.34 6.32 5 7 C4.34 7 3.68 7 3 7 C0.70351351 4.4385343 0 3.52032428 0 0 Z " fill="white" transform="translate(891,142)"/>
<path d="M0 0 C1.32 0 2.64 0 4 0 C6 3 6 3 6 6 C3.37812506 4.95125002 2.20628639 4.35068687 0.75 1.875 C0.5025 1.25625 0.255 0.6375 0 0 Z " fill="white" transform="translate(462,179)"/>
<path d="M0 0 C1.7074998 1.28062485 3.37373596 2.61767557 5 4 C5 4.66 5 5.32 5 6 C5.66 6.33 6.32 6.66 7 7 C6.01 7.495 6.01 7.495 5 8 C2.20127563 5.47211993 0.54226981 3.79588866 0 0 Z " fill="white" transform="translate(863,113)"/>
<path d="M0 0 C0.66 0.33 1.32 0.66 2 1 C1 4 1 4 -1.4375 5.75 C-2.7059375 6.36875 -2.7059375 6.36875 -4 7 C-4.66 6.67 -5.32 6.34 -6 6 C-4 3 -4 3 -1 2 C-0.67 1.34 -0.34 0.68 0 0 Z " fill="white" transform="translate(972,112)"/>
<path d="M0 0 C3.37705625 0.53725895 6.696686 1.11064623 10 2 C10 2.66 10 3.32 10 4 C8.51882199 3.71872579 7.04006751 3.42466268 5.5625 3.125 C4.73878906 2.96257812 3.91507813 2.80015625 3.06640625 2.6328125 C2.38449219 2.42398438 1.70257812 2.21515625 1 2 C0.67 1.34 0.34 0.68 0 0 Z " fill="white" transform="translate(695,185)"/>
<path d="M0 0 C-0.33 0.66 -0.66 1.32 -1 2 C-3.64 1.34 -6.28 0.68 -9 0 C-9 -0.33 -9 -0.66 -9 -1 C-5.22102349 -2.0497157 -3.35080929 -2.10976881 0 0 Z " fill="white" transform="translate(81,187)"/>
<path d="M0 0 C3.63 0 7.26 0 11 0 C11.33 0.99 11.66 1.98 12 3 C6.06 2.01 6.06 2.01 0 1 C0 0.67 0 0.34 0 0 Z " fill="white" transform="translate(444,159)"/>
</svg>
